/* XPM */
static char *result[] = {
/* columns rows colors chars-per-pixel */
"64 64 255 2 ",
"   c #160819",
".  c #06022B",
"X  c #15042A",
"o  c #060434",
"O  c #0B0635",
"+  c #090836",
"@  c #0B0B3D",
"#  c #160737",
"$  c #130B3C",
"%  c #0A173B",
"&  c #1A153B",
"*  c #27073B",
"=  c #2E163B",
"-  c #072D38",
";  c #2C233E",
":  c #520A3A",
">  c #740938",
",  c #50293B",
"<  c #782A38",
"1  c #0D0D44",
"2  c #180B41",
"3  c #0C1645",
"4  c #171648",
"5  c #161954",
"6  c #280845",
"7  c #38084B",
"8  c #251547",
"9  c #391648",
"0  c #2D1854",
"q  c #0F2E4C",
"w  c #192757",
"e  c #18375A",
"r  c #382546",
"t  c #302A4C",
"y  c #262857",
"u  c #243758",
"i  c #161C64",
"p  c #193B66",
"a  c #263765",
"s  c #31316A",
"d  c #4E0D4E",
"f  c #570A5B",
"g  c #670B56",
"h  c #4A2A46",
"j  c #4F314E",
"k  c #7A3A47",
"l  c #702E54",
"z  c #521A65",
"x  c #690A65",
"c  c #6E186B",
"v  c #492F6B",
"b  c #732D6C",
"n  c #114C54",
"m  c #294E55",
"M  c #11695B",
"N  c #1A4F68",
"B  c #25446A",
"V  c #2B4974",
"C  c #334D71",
"Z  c #275777",
"A  c #196E6F",
"S  c #177566",
"D  c #157E68",
"F  c #29686F",
"G  c #237F72",
"H  c #25757B",
"J  c #5A4857",
"K  c #724D54",
"L  c #4F4C72",
"P  c #675070",
"I  c #5B6667",
"U  c #786A6B",
"Y  c #8D0D39",
"T  c #8C2C38",
"R  c #982D3A",
"E  c #9A333E",
"W  c #A9272C",
"Q  c #B2292E",
"!  c #A72A37",
"~  c #AD2D3B",
"^  c #B22A36",
"/  c #A5343D",
"(  c #AB323C",
")  c #B3323A",
"_  c #900D4A",
"`  c #8D2E4C",
"'  c #873A4A",
"]  c #9C3444",
"[  c #973948",
"{  c #963C52",
"}  c #A33443",
"|  c #AC3444",
" . c #A83846",
".. c #A43B4B",
"X. c #AC3C4C",
"o. c #B33543",
"O. c #B43A45",
"+. c #B33C4B",
"@. c #B83A49",
"#. c #AE3A50",
"$. c #8B2D6C",
"%. c #9B236B",
"&. c #CD2D5B",
"*. c #8D424D",
"=. c #97444D",
"-. c #8C4353",
";. c #884655",
":. c #8D4C59",
">. c #944354",
",. c #9B4455",
"<. c #994758",
"1. c #934B5B",
"2. c #9B4B5D",
"3. c #88535C",
"4. c #96545A",
"5. c #A9414C",
"6. c #B8424D",
"7. c #A64758",
"8. c #B54454",
"9. c #BD4554",
"0. c #B74A5A",
"q. c #A8545B",
"w. c #B45659",
"e. c #9A665A",
"r. c #8A4C6D",
"t. c #9C4C63",
"y. c #8D5B64",
"u. c #955562",
"i. c #9C5363",
"p. c #9C5A65",
"a. c #995A68",
"s. c #A54D62",
"d. c #B64C63",
"f. c #A35465",
"g. c #A85667",
"h. c #A45B6B",
"j. c #AB5B6C",
"k. c #B65869",
"l. c #AC5D70",
"z. c #B65D72",
"x. c #99636B",
"c. c #906F71",
"v. c #9B6973",
"b. c #A6626C",
"n. c #B6646A",
"m. c #A46472",
"M. c #AC6473",
"N. c #A46B76",
"B. c #AB6A75",
"V. c #AD6C7A",
"C. c #B46374",
"Z. c #B76676",
"A. c #B46C7C",
"S. c #BB6B7D",
"D. c #A8737C",
"F. c #B5727D",
"G. c #C34B58",
"H. c #CC4D58",
"J. c #C75268",
"K. c #CD6B74",
"L. c #C56978",
"P. c #1A8874",
"I. c #289078",
"U. c #2BAD78",
"Y. c #61A07B",
"T. c #7A3B80",
"R. c #2A5984",
"E. c #345784",
"W. c #316F8E",
"Q. c #367AA4",
"!. c #495589",
"~. c #4F6D90",
"^. c #726393",
"/. c #4D79A6",
"(. c #943283",
"). c #9A5C94",
"_. c #B24E8F",
"`. c #BA6E80",
"'. c #AB7981",
"]. c #B47481",
"[. c #BB7483",
"{. c #B57B85",
"}. c #BB7C88",
"|. c #C27485",
" X c #C87788",
".X c #CA7689",
"XX c #C37C8B",
"oX c #318C8F",
"OX c #279785",
"+X c #239D8C",
"@X c #2EAB8E",
"#X c #3A86AA",
"$X c #3F98A4",
"%X c #508598",
"&X c #5BA69A",
"*X c #4E8FB4",
"=X c #688FB0",
"-X c #48ABB0",
";X c #37D29C",
":X c #49CFAC",
">X c #5CA4CD",
",X c #57AFD0",
"<X c #6AB0CB",
"1X c #6CCCDE",
"2X c #979B9D",
"3X c #AA8A8E",
"4X c #B58388",
"5X c #BC838D",
"6X c #BB8B93",
"7X c #BC969A",
"8X c #C5828D",
"9X c #D5858C",
"0X c #C38491",
"qX c #CB8492",
"wX c #C78B96",
"eX c #D58999",
"rX c #C6959A",
"tX c #CA939C",
"yX c #D3939E",
"uX c #E1909A",
"iX c #CA9AA2",
"pX c #D39AA4",
"aX c #D999A6",
"sX c #DC94A8",
"dX c #E49BAA",
"fX c #C9A5A9",
"gX c #D3A4AC",
"hX c #DCA4AD",
"jX c #D6A8AC",
"kX c #D7AAB1",
"lX c #DBABB3",
"zX c #CEB4B3",
"xX c #DAB7BA",
"cX c #E4A3AE",
"vX c #E4A9B5",
"bX c #E3B3BB",
"nX c #E6B5BB",
"mX c #F5B0BB",
"MX c #DEC0BD",
"NX c #8C99D0",
"BX c #DEBFC2",
"VX c #E9BBC2",
"CX c #F6B9C4",
"ZX c #86DAE7",
"AX c #DBC6C6",
"SX c #DED0CF",
"DX c #E8C6C9",
"FX c #F4C5CB",
"GX c #EACFD1",
"HX c #F6CCD3",
"JX c #E9D6D4",
"KX c #F7D9DB",
"LX c #EFE1DE",
"PX c #ECE3DE",
"IX c #F1E7E3",
/* pixels */
"h.{ h.XXl.j.XXf.Z.f.`.g.h.cX`. Xv.yX.XM.V.S.k.v.XXh.{.~ K.j.{.FXF.j.q.d.s.~ X.[ X.} ..j.g.] gXbXbXhXgXlXgXvXfXhXk.! R Q Q W W W ",
".Xs.g.z.z.K.L.k.j.tX}.}.a.pX:.M.CX].|.a.y.bX7X' VXt.rXR [ ' }.yXb.=.R 5.k.7.>.k dX=.#.' x.fX4XB.>.l.s.pXa.z.6Xf.J.@.O.W W G.^ Q ",
"@ o 1 o + + + + [.sX[.XXsXt.{.V.}.'.<.{ k xXIXr.DX1.tXq.k.j.yXyX|.q.[ E s.g. XM.4.4.n.tXN.HXeXg.,.1.pXnX5Xl.nX>...+.6.~ 6.G.) ^ ",
"+ { o s.+ >.+ + + + + z.A.tXXX`.{.aXt.2.' l.0XsX'.A.{.u.n.F.nX4XlX5XwX4X6Xj.g.h.V.vXMXjXx.hX=.5.] n.4XpXpX7.Z.] X. .o.) ) O.) H.",
"h.$Xk.#XsX$Xz.@ s.o + O u.pX0Xt.A.m.m.u.' i.l.t.3XqX4.aXg.F.3.lXGX7XkXVXDXM.`.l.lX4XtXhXxXMX<.[ +.| E 5.2.0.,.E / / O.( ^ ) ! H.",
"z.g.s.s.g.yX$XS.O  X+ O O o ;.t.j.t.h.>.{ XXl.{ 1.aX8XyXwXL.F.b.'.tXiXnXbX7Xz.l.yX{.XXzX'.zX7.} ! ( 8./ ,.cXbXxXT / 6.) ) Q G.W ",
"] $Xs.1 Z.D g.1 V.O l.O V.O O |.p.{.p.M.u.XX' |.*.x.:.< b.wXrXq.vXXX' eXwXVXl.g.hXwXcXjX'.DX7.} ( 6.5.7.b.v.JXPXb.5.O.O.) Q ) ) ",
"D ] D .X1 z.j.b.*Xh.O }.+ pXo + u.M.Z.A.qXXXh.{ < tX[.' 7.n.wX6Xv.iX[.t.hXkXt.g.g.cX2.x.[.nX....5.8.5.k.8XcXnXJXMX/ O.) ) Q ) ^ ",
"Z.1 #.1 n.@ C.+ [.$X2.@ h.+ M.+ a.t.] [.}.-.gX] f.V.wX:.aXC.wXa.kXrXV.u.5XaXa.7.5.N.F.A.g.pX....8.X.} |.aXaXbXSXlXK.! ) W Q Q ) ",
"7.g.1 7.1 S.@ eXD ,.@ n.m.A.+ + o f.{ `.a.m.tXM.z.7.}.rX:.V.K XXxXDXXX].lXgXD.<.E 5.qX4.b.4.4XE ^ / }  .dXaXgXFX=.) Q ( Q ) O.J.",
":.D S.g.j.1 sXP.Z.@ p.*Xh.1 |.+ o j.S.qXh.l.kX1.,.k.k.S.].mXtXsX].xX7XS.yXm.nX<.5.E tXiX0.f.bX0.~ +.X.[ lXMXkXn.] ! @.) J.K.! G.",
"D -.@ C.@ sX@ j.D rX1 hX1 XX1 V.O g.' h.l.f.7Xy.wXg.z.j.5Xu.`.}.].JXJX6X4XlXqX0.O.8X6X7Xf.j. X5.o.@.( | } q.+.@.O.( 6.G.K.H.Q G.",
"hXD s.1 F.P.b.+ 5X1 6X$Xm.1 h.@ + A.t.h.a.4.nXbXvX6Xb.8XVXA.l.A.zXLXKXDX].a.qX,.7.fXDXB.pX=.#.7.8.^ ~ w.9.~ 9.5.O.( 6.6.) ) ) ) ",
"tX1.D .X*X XP.b.@ mX1 wXD a.1 XX+ u.S.u.FXF.j.mX< b.tX4.BXA.t.`.DXPX3X#.{ #.zXJXDXf.dX-.T ..0.7.8.^ W J.J./ O.G.w.) G.9XuXH.G.) ",
"g.D A.$X}.I.N @ iXD |.1 tX1 h.@ & @ h.`.dX}.8Xn.h.Z.4.' 6Xh.'.N.DXHX:.s.] [ qXxXGXDXjX{ ] } 8.8.o.9.! 0.G.+.@.9.G.( G.9.d.0.6.) ",
"oXQ.1 . $X-Xq vX1 ;X@ yX@ > @ n.K o u.m.eX[.p.6Xf.,.g.<.zX4Xa.'.wXxXh.7.d.}.`.:.rXxXD.u.h.[ 5.7.+.G.o.#.6.~ o.) 6.) H.6.9.H.( H.",
":XI.p.n oXW.cX+ g.*Xx.% * > =.=.n.K + + m.pX;.DXdX7.s.f.nXGX4XF.fXJXk <.h.kXtX>.p.FXgXvXgXf.g.] 0.J.| 9.9.(  .X.| W ( 6.H.) ) 6.",
"%XF @ Z OXB . n % 4.+ X n P.;XW.=XJ o o @ + + O o Z.[ k.qXF.aXxXKXx.Z.1.XXdXvX3.rXVXjXqX4.XX X|.7.5. .X.@.~ 8.8.@.K. .O.O.W ) ) ",
"W.F o oXS % y U.W.q O W.U.OXS m m * P >Xu j f c 6 O o o g.|.{.SXAX' { i.l.h.dXiXlXzXkXxX0X=.s.w. ./ 5.O.~ ~ +.9.6.9.6.G.9.( ) 6.",
"I.e - A P.% R.@Xn + m ,X@X<XZX_.h g x %./.l x x =X~.l _.* o hX3.lX.Xz.5X0Xh.CX0XhXgXF.nXlX[ 5./ 6.9.+.~ o.( o.@.( ! 6.G.G.( ) ) ",
"D F H oXy - -XS J z ^.L l NX=XC > g f !.1Xr.l v %X*Xb b !.E.o m.8X[ 2.DX7XmXmX].cXcX4.FX7X:.E O. .9.| ^ ) | #.+.G.+.6.9./ ) W ! ",
"P.I.Q.@X+ OXF   %X1XU 8 x (.z <X` d 2 E.Q.z f 7 w K _.9 ~.*Xd o 8X} 0.lXVXl.[.i.tXjXMXGX$ 1 $ @ # 0.+.( G.+.J.9.@.( 6.| w./ w./ ",
"2X&X&XU U (.b , >X*XV : g d #X,Xv d # y L l f =X>X4.c ~.=Xn.T.u @ @. .0XcXiXm.hX1 4 4 4 2 6 j 2 % $ $ K.K.8.G.G.( O./ ( O.L.FX=.",
"5.n.t.F.=X~.7 ).c v E.> : 6 V R.J c s Q.L h 9 B e h j W.L i.^.*XW.+ ,.qXtX9X@ 1 4 4 4 w <X^._.x 9 r.2 2 # # +.@.~ ~ (  .4X7.yX4.",
"l x.f !./.*X0 b x !.<XE.* # 8 V j # 3 e 3 u ; % % t h 4 = J ~.*Xi.@ < gX8X$ 1 1 0 8 0 /.<X!.<XL 9 t =X6 1 2 +.~ ( o.! X.FXf.nXMX",
"v -XL 9 !.E.s : 7 V W.a d # y B u F % I w B p 1 n E.q q m j t J ` !.+ @ $ 3 1 W./.c _.%.r.~.,X*Xj J P c.$ $ @ +.G.6.o.R qXb.wXDX",
"L V R.d x z >XE.6 # 4 y # # $ C u n w *XB S 5 3 I.R.4 q D H 0 j K =XR.@ 1 4 # ,X/.x x 9 j T.c P U q.{ c.y.2 + 6.@.X.+.!  Xb.x.dX",
"0 f d E.0 5 Z a # X X # X # # C t m q w H A 3 R.@Xq w M H e q m j B K.6 0 0 { C W.,X>Xu 6 k x d K , l P K & @ 9.+.8.8.+.4.FXhXn.",
". O * y 4 X X X X X X <.|.l.# h h ~.N K A p w #XM 3 R.A n p OX@Xq 8 '.!.P c &.> V *X*XL K q.h l F h ;.=Xb.; + + ~ ! O.+.T uXaXq.",
". . . . . X Z.S.F.h.<..Xz.<.X , j %XN U.W.e q A q e A +X1 Q.+Xn 5 Q.,XNX%.%.^ ^ d P v J K , & ; n M w K q.9 + + ~ G.+.6./ 7.uX9X",
"m.].h.}.tXvXwXu.aXqX<.l.l.M.# y C ; m U.N w #XA 3 p OXp 1 ;XW.Z -X-X#Xx (.c b b l f d j m p ~.n q % e I ~.u O + ) +.G.X.6.5.w.K.",
"[.m.HXl.|.:.DXzXD.[.S.C.l.' O w L J m S Z e W.A 5 R.+X1 R.:X1X/.^.F 0 s 0 7 6 P :.0 r N - 3 B S u S P.m k y.+ o ~ G./ 8.] 9.( ) ",
"i.sXS.i..XiXD.z.l.xXl.j.`.j.O # l a.L D n F #Xp q oXA w &X^.P d _.g * >X*XV & h K s V q q q W.N N P.m : T L.+ + 8.+. .#.J.G.@.@.",
"{.6X0XaXcXaXiXqXt.FXA.t.:.l.X $ U %Xj F I.OXA i @XoXi W.1XL 7 Y H.Y j s R.J J r y !.N p w G R.q n W.F H I.=X+ + O.6.o.+.G.#.+.o ",
"bXCX{.sXaX`.|.6Xh.XX`.t.h.M.# s <XQ.K t s oXq R.@X1X/.~./.(.x _ _ > l d d ; t % i Z N a i %XZ q M *XF -XP.q O o | ) ^ O.8.8.. . ",
"2.t.`.qXsXVXdX].|.j.{ { <.pXO # 5 b ).V J &Xv r.P /.).f z x c 9 d ' ;.w V A q 4 s N B y oXG q e I.%XH @XY 7.# O 6.) . . o o . . ",
"' >.wXhXaXlX}.j.h.l.wXs.d.v.iX$ $ *X*X~.c.1X=X>X9 P _ g v s 6 6 6 ' 5.; h u n # e N w s I.E.i A @XJ @XoXh 4.  o + o o . o . . E.",
"j.h.kXiXVXcXa.l.cXM.1.C.].u.{.2 @ /.z ^.!.z v =X7 d &._ h W.R.4 # ; X ; , h V #XF F 0 Z D C 5 OXZ Z #X:X@X:X<Xo o o # % & P = /.",
"|.wXgXbXvXuX{ XXl.f.l.`.k pXrX2 2 0 $ #Xv d d z (.f Y > k t 5 & & + + r , , C P F A e Z @Xy V @XN e OX-X+X:XV O o ; y.2X<X/.* 6 ",
"`.}.lXaXm.m.f.].-.1.`.`.' iX6X1 2 # d s 7 > Y g f 7 h j 2.h @ @ + + @ 4 * , K n.J Q.Q.I.U.4 R.-Xu 4 $X@XN :XK r.(.g j b /.*X7 _ ",
"t.V.kXhXm.FXh.h.[ wXf.2.1.bX7X' # 1 # 6 f d : : 8 $ # # h 1 1 o ,.D.@ @ O r h 3.*.I q.e.oX<Xc.Y.F =Xq.d.K K K =X<Xv j 7 $.%.v _ ",
"l.' sX}.wXl.s.k.T 4.B.n.XXvXhXwXp.$ @ 2 2 2 # 2 4 1 1 1 1 1 {.6X2.nX+ + @ 4 z b K c.l ,.y.U ` { b.K c.x c z t Q.#XE.d d x f =X^.",
"t.].'.{ ,.f.f.g.{ Z.CX[ g.l.tXVXk @ + $ $ 2 4 4 3 1 @ b.iX'.'.gXb.,.+ O + @ e $ r j c t.j K c (.l j /.1Xz = * $.v i > > * 5 Q.i ",
"7XCX<.a.M.:.-.7.] ..7.7.z.Z.s.i.wXvXpXD.KXLXJXIXxXgXFXkXDX7XJXv.vX' [ R + + + + y /.s 7 J L !.0 = 8 %X#Xs = 7 c x *XL d # 2 q w ",
"m.{.3.1..X[ z.J.d.0.z.C.7.z.V.C.l.`.{ vXc.rX3XJXgXF.*.9X6X5X0X}.6Xb.7...7.D.% + 6 0 w 2 8 W.Q.y * 7 z s a : d 7 8 Q.B * $ G N % ",
"`.5X5XwX2.7.q.=.L.0.q.S.qXqXeXS.`.V.v.iXK ].xXKX5Xf.7.T m.`.].6XlX6X4X4X3.GXIXzX1 2 $ 4 7 f y !.* d f z *Xw O # % 3 . + e n e . ",
"D.pXiXgX1.;.B.7.J.z.M.u.t.D.l.).x.m.m.y.xXv.VXXXi.j.{ < ;.hXU mXfXKXPXLXfXPXLXy.zXz.O O # 6 4 i # # 2 a Z p 4 t M C . % Z M % . ",
"lXcXVXbXV.vXxXdXl.x.y.u.>.cXx.iXBXxXiXt.s.l.iXiXaXi.g.iX< }.AXK fXlXv.CX3X7XfXDXnX{ 1.A.O O # O O O O O L N r J B C % n N e . m ",
"aXXXVXtXl.xX`.s.sXwXsXN.wXy.V.].m.6X].iXu.:.0XVXsXj. XtXv.7XDXHXVX}.VXtX'.bXjXnX' q.' N.rXfXFX# O X . X O * * < d & V P.q . . n ",
"wXeXgXwX|.VXa.{ 1.M.j.:.7XtX|.g.{ eXpXiXiXbX[.a.h.1.' ' xXxXc.sX].].fXlX{.iXDXu.L.B.' aXD.bXp.xX,.{ CXDX+ 8X= 2.X # @ M + . % P.",
"].t.}.}.f.vXu.<.[.vXL.B.HXa.;.g.{ h.'.VXC.t.XXXXwX6XA.T 1.DXlXxXgX.Xf.`.vXhXkXp.}.:.' S.{.jXdXMX{ .XiXVX+ G { G 8XCXe.G } @ / / ",
"xXpXt.[.'.KX{.g.,.7.qXSXLXm.i.XXu.].m.].6XsXXXhXgX}.|.v.l.VXt.v.l.g..X'.yXDXDXD.6X;.4.|.3.x.nXx.*.K zX{ O k G ] P.mX# +.X.O.P.X.",
"`.qX`.r.{.KXL.{ g.' m.HXLX3Xa.`.t.`.1.t.sX`.}.`.h.7X'.].[.'.a.tXN.M.' VXh.].IXiXp.xXxXD.lXtXlX4XB.cXgXv.+ :.] G o.@ F.P.n.@ @.+.",
"].M.VXh.AXKXS.x.3.{ L.[.3XFXeXk }.`.`.:.eX].[.a.zXIXGXPX].BXa.GX6XfXr.].v.t.HXnX1.6XKXfXaXsXbXwXV.nX6Xh.+ + O ^ G n.lXvXG R G ! ",
"vXN.KXh.V.IX{.F.HX}.1.V.{.dX' a.[.cXhXh.tX:.}.m.KXBXa.IXiXfXx.c.h.lX3.i.3.V.j.AXfX' N.k 7.Z.i.yXhXiXfX1.iXO + G 4.@ Z.G ! 1 } G ",
"qXqXz.z.l.HXHX6Xx.qXpXpX'.M.v.m.h.d.`..XXXv.gXSX].7XSXLX7XgXVX7XV.Z.L.z.x.t.A.AXSXfXyX8X,.' `.{.N.fXBX;.yXL.+ | G 9XG ..1 | G X.",
"M.1.l.XX<.S.pXvX8Xx.].|.XXgXxX].' d.d.d.c.0XrXIXIX3XGX'.wX;.aXy.fXa.,.2.yXS.8XcXdXuXXX[ d.T j.M.cXFXaXk.7.` ..+ } @ 7.P.+.@ R @ ",
"XXsXM.i.Z..X}.m.B.CX`.p.m.wXiX}.<.L.k.d.JXgXm.LXIXHX3XFX6XwXV.;.bXhXdX>.cXw.T } R J.]  .} [ T ..] T T R R ' { ' + g.+ } 1 X.@ 5.",
"`.h.t.p.M.u.].pX6Xz.y.7Xa.s.}.}.' z.T 7.HXxX;.kXVXVXpXK GXpX:.i.<.<.{ ..[ ! | / E 0.! |  .E } ] } .. .[ q.eX;.5X,.+ + + R @ ! @ ",
"|.l.1.l.}.{.cXa.B.'.wXeXm.].t.>.p.A.<.M.SXtXwXk.iXD.iXDX|.f.f.].s.2.{ { =.f.w.0.0.8.! } ..[ } ....7.7.} ] ] [ z.Z... .X.@ + 1 o ",
"z.z.g.l.M.0X`.:.gXf.j.7.1.tX*.F.XXpXwXpX`.x.A.B.VX3.m.7X,.4.q.B.F.b.3X*.] { 7.d.s.q.}  .5.+. .| |  .0.l.L.` X...] R ,.] | } ] ] ",
"7.7.t.m.N.p.{ VXkXD.a.}.K VXZ.' 2.wXV.VXt.3.wXZ.FX6XD.{.< E | b.fXx.JXv.a.iXZ.' }  .}  .X.+.} | } } R .XeXL.j.] ~ ~ | 5.*.v.6Xc.",
"` |.t.vXbX:.;.Z.CXVXi.j.Z.m.<.f.1.yXu.N.sXrX4X' 5X'.bX}.n.R E q.D.5XFXnXDXB.mXV.>.[ ..} [ | X.+.9.#...X. .d.k.] R ] R {.GXDXDXGX",
"`.t.l.V.0XA.iXj.0XB.j.L.z.|.b.4.pXt.`.:..XkX6XrXB.x.kX5Xg.q.D.4X5X|.>.b.fXS.;.hX4.[ } X.} / }  . .X. .X. .} } ] <.x.f.MXGXDXDXvX"
};