/* XPM */
static char *result[] = {
/* columns rows colors chars-per-pixel */
"64 64 237 2 ",
"   c #1A180F",
".  c #2B2A18",
"X  c #2F2D23",
"o  c #37312D",
"O  c #39372A",
"+  c #453D37",
"@  c #3E432C",
"#  c #49493A",
"$  c #52483B",
"%  c #4A4943",
"&  c #524D46",
"*  c #58574A",
"=  c #505153",
"-  c #585857",
";  c #5F5F5E",
":  c #6C504B",
">  c #635E58",
",  c #696A55",
"<  c #686759",
"1  c #5A6263",
"2  c #686767",
"3  c #726D66",
"4  c #6B7269",
"5  c #787668",
"6  c #6E6E72",
"7  c #6E7575",
"8  c #737373",
"9  c #787876",
"0  c #7C7B7C",
"q  c #982C37",
"w  c #902F3C",
"e  c #AC262C",
"r  c #A92A37",
"t  c #B22B36",
"y  c #A8333C",
"u  c #B3323B",
"i  c #883949",
"p  c #9D3444",
"a  c #97374D",
"s  c #973849",
"d  c #A33443",
"f  c #AB3444",
"g  c #A63948",
"h  c #AB3C4C",
"j  c #B53A46",
"k  c #A83D53",
"l  c #B83A57",
"z  c #8B4756",
"x  c #934D57",
"c  c #974859",
"v  c #A9414B",
"b  c #BC434C",
"n  c #A54759",
"m  c #B64657",
"M  c #AA565E",
"N  c #965261",
"B  c #9C5263",
"V  c #995966",
"C  c #A74E63",
"Z  c #A75467",
"A  c #A45B6B",
"S  c #AF596D",
"D  c #AC5C6D",
"F  c #B65869",
"G  c #B65D72",
"H  c #98646A",
"J  c #817B6E",
"K  c #9B6C75",
"L  c #817C74",
"P  c #837D7A",
"I  c #AB626C",
"U  c #A56472",
"Y  c #AC6373",
"T  c #A96B76",
"R  c #B36374",
"E  c #B76979",
"W  c #A8717B",
"Q  c #B6727E",
"!  c #C94B56",
"~  c #C25967",
"^  c #C46777",
"/  c #CD6879",
"(  c #7A8377",
")  c #848374",
"_  c #8D8C76",
"`  c #84837C",
"'  c #8B847C",
"]  c #8A8979",
"[  c #8E927B",
"{  c #7A7B82",
"}  c #817F83",
"|  c #BB6E80",
" . c #AC7881",
".. c #B87884",
"X. c #C57787",
"o. c #CB778B",
"O. c #7C8285",
"+. c #7F8990",
"@. c #838385",
"#. c #8A8583",
"$. c #8D8A84",
"%. c #868889",
"&. c #8C8B8B",
"*. c #928D83",
"=. c #958B85",
"-. c #938D8B",
";. c #89938C",
":. c #999886",
">. c #94928C",
",. c #9B938D",
"<. c #8C8D92",
"1. c #928E93",
"2. c #8D9495",
"3. c #949393",
"4. c #9B9493",
"5. c #9D9A93",
"6. c #95989A",
"7. c #9D9B9C",
"8. c #B9838A",
"9. c #A29C94",
"0. c #AA9996",
"q. c #A39E9B",
"w. c #B29292",
"e. c #9CA38A",
"r. c #9BA39B",
"t. c #A5A68C",
"y. c #AAA896",
"u. c #A5A29C",
"i. c #ABA49D",
"p. c #B4AC9C",
"a. c #ADB199",
"s. c #B4B39B",
"d. c #9A9CA2",
"f. c #A39EA3",
"g. c #9DA4A4",
"h. c #A4A2A4",
"j. c #AAA5A3",
"k. c #ADA9A4",
"l. c #A6A6A9",
"z. c #A7A9AB",
"x. c #ACAAAC",
"c. c #B2ABA3",
"v. c #B6AAA3",
"b. c #B2ADAC",
"n. c #A8B3AB",
"m. c #B4B2AC",
"M. c #BBB4AB",
"N. c #BAB8A8",
"B. c #ACADB1",
"V. c #B1AEB2",
"C. c #ADB4B6",
"Z. c #B2B5B3",
"A. c #BBB5B4",
"S. c #BCBBB4",
"D. c #BAB6BB",
"F. c #B4B9B8",
"G. c #BCBBBB",
"H. c #C78895",
"J. c #CF8A93",
"K. c #D68A9A",
"L. c #CA949B",
"P. c #D98FA3",
"I. c #CA9AA2",
"U. c #D899A5",
"Y. c #E39CAA",
"T. c #CAA4AA",
"R. c #D6A4AC",
"E. c #C3BAAC",
"W. c #DAA9B1",
"Q. c #C5BCB4",
"!. c #C3BDBB",
"~. c #DCB6BA",
"^. c #E8A1AC",
"/. c #E5A9B4",
"(. c #E5B4BB",
"). c #BEC5AD",
"_. c #B9C2BB",
"`. c #C4CB9B",
"'. c #C8C6B7",
"]. c #C8CCB5",
"[. c #C4C3BC",
"{. c #CBC5BB",
"}. c #D2CABC",
"|. c #BBBCC2",
" X c #C2BEC2",
".X c #E9BCC1",
"XX c #F2B8C3",
"oX c #BCC4C3",
"OX c #BDC8C4",
"+X c #C4C3C3",
"@X c #CBC5C4",
"#X c #C6C9C9",
"$X c #CBCBCC",
"%X c #D3CCC4",
"&X c #D9C9C5",
"*X c #D2CCCB",
"=X c #CAD3CA",
"-X c #D4D1CD",
";X c #D9D4C9",
":X c #CCCBD2",
">X c #D4CED3",
",X c #CCD3D3",
"<X c #D4D3D4",
"1X c #DBD6D3",
"2X c #DEDBD4",
"3X c #D4D4DA",
"4X c #D7D8D9",
"5X c #DCDBDC",
"6X c #E7C6C9",
"7X c #E6DAD5",
"8X c #E3DDDB",
"9X c #F2D1D3",
"0X c #DAE2DB",
"qX c #E0E4CA",
"wX c #E5E6D6",
"eX c #E4E2DD",
"rX c #EBE3DD",
"tX c #D7DAE4",
"yX c #DDDCE2",
"uX c #E2DDE2",
"iX c #E3DDEA",
"pX c #FBDFE0",
"aX c #DCE4E4",
"sX c #E4E3E4",
"dX c #EBE4E3",
"fX c #E7E8E7",
"gX c #EAE6EA",
"hX c #E4EBEB",
"jX c #ECEBEC",
"kX c #F3E6E4",
"lX c #F2ECEB",
"zX c #E9F4E7",
"xX c #EDEDF2",
"cX c #F2EEF2",
"vX c #ECF2F4",
"bX c #F4F2F5",
"nX c #F5F6F9",
/* pixels */
"A i U o.S D X.A E C ^ A A /.| X.U P.X.U T E F U o.U z.z.l.z.z.n.z.z.n O C o h s h p h D Z s T.(.(.R.U.(.R./.I.W.F r q e t e e x.",
"o.C S G G / G G F L.8...V U.Z.Y A. .C.V V .Xz.z.z.z.L.w p z Q L.o v o v o n z.z.z.z.h i H I.8.T z S C I.H I H.V ~ j j e Z.! t t ",
"c Z.C G ^ m.G A...Z.X.Z.P.Z...Z... .c A.i C.rXz..Xx L.A.F Z.R.Z...Z.s Z.c Z.o.Z.N o T o T 9XK.Z c x U..X8.R /.c h Z.b t b F.u t ",
"Z.a V.C Z.c Z.S E D C R E H.H.| F.U.Z.c C.U Z.P.C.Q Z.N Z.Q Z.8.Z.8.Z.8.Z.S Z.A O /.(.I.O z.k.v Z.E ..L.U.n Y p Z.f j f j u u ! ",
"A Z.G B U.R S F C C.Z G V I.H.l.z.Y U Z.i x.U o w.D.N Z.Z m.z Z.6Xo W.Z.6XZ.E Z./.8.L.o (.o x z.j Z.y F.c Z.c p p y j y t Z.r Z.",
"G S Z.n C P.A.Q S o.Z.X.A B l.C Z.C Z.z C.8.Z.a C.U.Z.U.m.^ C.I Z.L.Z.(.Z.I.Z.D Z...O ~.A.Q.Z.p o l.m y Z.^.Z.(.s y j u Z.t ! r ",
"a k C V.E Z.A Z.T G S N  .z...C.V o A F.B Z.i A.i A.z Z.I Z.L.F.(.A.i Z.H.Z.A Z.U.Z.^.Z.Q C.n Z.f m.v Z.V Z.7X7XI v v j u S.u t ",
"k a a o.Z.G Z.I F.Z | l.l.U...G Z.U Z.T Z.o.F.a Z.I.Z.i Z.R Z.8.Z.L.Z.B Z.R.C.F Z.W.A.H Z.(.Z.g Z.m C.F z.^.(.7X}.q u y N.e u t ",
"E k k F F Z.R m.X.Z.n Z.U C.Y Z.V m.p C...Z.I.a Z F.L.z U.o H.A.R.L.T V 8.Z.V O k O E Z.C o v Z.n C.d O U.z.(.;X/.~ r Z.e Z.e A.",
"c C a C o.Q Z.K.[ l.N.G Z., O o.l.M Z.Q s.:.e.a.o n C.L.Z. .Z.`.].N.O W @ [ e.c [ ( Z.* o N Z.p Z.y O ).].=Xz.[ 9 j A.y t t j F ",
"x Z.^ Z.S Z.U., l., [ ) A + _ , e.) 5 _ s.t.y.o ( # $ e...o J.O ..O :.* # @ ] C.( [ # ).n A.(.4 5 < ; ( :.s.t.z.5 m.j j ~ S.r ! ",
"U.z Z D t.a.s.z.( y.:.t.# , [ # t._ , , `.t.t.t._ # > 3 [ a.a.].'.N.[ :.( , 4 m [ _ ( , y.s., < *.e.e.9 4 e.].N.z.y `.l / ! t b ",
"W.B Z t.a.e.* z.t._ y.[ , , 5 < [ + .   E.v.s.y.[ , s.& s._ E.;Xs.=X}.>.N.e.3 Z.wX`.[ $ s.].5.p.] ) a.; ) '.'.0Xz.].) ].f u b u ",
"H.c n y.e., z.t.< : p.t.s.J 5 [ + _ , p.E.`._ J 5 3 >.`.J '.}.}.}.'.p.:.].l Z.7XZ.] {.' [ '.e.5.% ) '.N.N.[.}.1Xs.z.}.2XK.! ! u ",
"Z Z R 3 5 z.* t.*.$ ,.E.5 * ) $ $ 5 p.E.:.p.p.E.}.}.N.N.s.:.;X;X].E.J }.d F.J.:.* Z.Q.-X< t.-.[.%X5.` e.* ` m.*X}.:.z.S.a.m j u ",
"Q D a.[ k.3 ) - < # < =._ # L & $ J v.s.J J ' {.' ;X}.&X;X}.>.) 5 N.9.P Q.;X%X}.k.~.{.;XQ.) c.}.y.b.9.A.c.c.Q.2X1X{.qXz.r.! y ! ",
"c B s.. k.( ].s.- s.> & 9._ < J o '.=.< E.w.: s.' j.,.& Q.&X%X1Xy.& ' *X3 Q.,.%XJ ;XR.A.%X5 9.p.*Xi.E.>X8X%XQ.;XeX8XeXz.rX2Xj j ",
"Y c a.z.N.E.< . 3 5 * , # # O O [ ) J , }.E.3 * y.' ' [ Q.}.{.-XM.' 7XE.;XeX>.5 _ 8XZ.M.4 u.,.,.c.{.;Xf.;Xc.m.C.p.7X{.2Xz.[.) j ",
"B V 5 k.y.E.0.:.0.9.[ *.=.< < [ T.}.v.3 E.u.] < y.5.,.>.=.k.N.%X) 3 ;XwXi.N.i.%X2XQ.W.u.] ' i.L ;XQ.M.v.b.] } &.*.8Xi.N.z.0X0Xj ",
"Y.3 z.N.) E.E.Q.E.&XQ.) & J P ~.s._ L + 5 5 9.Q.}.q.9.,.%X9.2X>.0 m.v.qXc.9 M.L rXj.Z.!.'.4.7X-.8 q.!.@X4.P P @X2 4.A.*.9.k.;.u ",
"8.[ z.@ . }.E.E.v.' & *.3 + 9.&XQ.P 6X& -.,.2 8 Q.;Xq.L * + y.' = 4.y.8X- 0.k.eX&.L V *XM.Q.Q.$XL M.q.P 9.A.- - :.rX8X8 % z.;.r ",
"U.) z.[ . [ }.E.M.* J J J > p.E.E.5 ,.: + 5 E.E.G.7X7XrXA.kX8X8X{.P q.;XA.b.*X-.m.8 A.;XP x.9 *X4.!.4.c.b.-.&.$.4.8X8X@X9 z.) y ",
"# j.3 $ , y.~.}.}.E.9.&X=.L 0.5 E.L J & #.E.;X0.v.%X;X8XP v.dXrXm.k.*XdX!.7Xm.A.S.Z.8 %XD.M.q.c.@X>X9.;Xj.A.-.*.m.eX+X#.S.$.z.x ",
"t.z.5 O y.> u., & }.' J 3 0.3 < ~.J L L E.&X=.> 8 ,.j.9 > }.7Xc.8X&XrXdX>X< > m.Z.W.9 X.m.H.A.h A. Xb.q.V.9.V.!.3XG.P F.( - z.x ",
"`.j.. @ y.}.5 '.> ;X&Xq.@X5 3 9.;Xp.< M.=.4.4.7Xb.L kXkXrXlX$.> j.8 u.7XkXfXkX$XK.A.8.-.rXA.{.!.1XZ.D.#.8X!.kXiX8X8XdX5XgX` z.}.",
"# n.X < :.u.( u.3 '.v.=.9.i.k.5 E.#.9 q.@X!.1XE.Q.8X7X*X1X{.4 i.{ 0.1XkXkXkX[.Q.@X` !.&.,.h.j.dX1X1.Z.b iXsX&X8XuX8X8XeX@XS.z.XX",
"n.t., , p.8 = < > 2 > 9 4.4.i.i.-.#.i.0.M.A.9.eXQ.;XD.E.1X5.1.Q.f.j.7XkXkXlXfXkX@X@XlXfX8XA.iXdXuXdX@Xq.b *XP V.8XuXl.4.>.m.eXY.",
"z.[ ].1 [.] < p.M.3 & #.[.5.9.P :.3 t.>.M.u.E.,.iX[.4.8X2 5 3 - =.uXh.eXjXkXk.&.kXlXlXlXkXlXkX!.q.b.f. XZ.} m.>X@X&.>X%X2Xu.S.R ",
"z.).> ) $ 5 %X$X% -.>X&X` -.*.J M.v.m.%Xc.j.i.,.5 2 ; + i.x.4.>XuX-X2XlXlXeX1X- dX7Xq.!.=.lXD.= { >X*X8 f 4.6.D.8 8X5XA.1X7.5.z.",
"z.[ e.Q.;X{.` J 7Xq.q.3.+XM.-.c.=.8 =.!.!.c.*Xi. Xc.b.7.f.-.4.P $.q.-XdXlX-X-.q.7.!.-.uX4.iXx.& >XV.A.D.D.4.V.|.{ $.+Xh.9 4 Z.z.",
"z.).`.( 5 #.>.2X1X-.q.' i.P u.q.Q.3 P c.-.9 q.G.q.[.!.A.m.b.j.uXdX@X1X5.lXlXsXq.D.#.!.f.P uX|.= *XD.j.Z.P } f.2 >Xq.3X+Xl.7.;.z.",
"z.qX5X$X+X#X9 S.v.;X*X!.3 ` q.1X=.p.L 8 ;XQ.$ o 3.kXlXkXkXlXA.4.kXlX-X>.D.kXgX<X6 B.E.} Q.iXf. X} #X@X9X6 1.3X= 3 uX8XsXsXsX2Xz.",
"z.}.].] ( 9 [.i.sXq.#.- 5.!.7.9.,.u.` 5 <X-XlXlXlXlXdXeX+XdXlXlXuX*X*X-.;Xf.f.iXlX8Xf.9 7XiXgX2 !.>X8Xc.f.} } f.V.f.1XiX$.8 4 l ",
"z._ ( # 5 S.-X*Xm.V.8 5.1.S.A.8XA.u.m.` >.4.u.k.M.m.3 q.!.4.8XcXf.8XD.%.#.*X>XlX1.P -.} gXV.&X3Xl.l.Z.1.1.f.D.D.9 b. X5XuX<Xz.b ",
"z.e.].7 E.@XeX4XD.` ` S.eXA.+X3.$.x.-.>.3 8X0 5.O.u.#.h.!. XlXcX X!.A.+Xj.V.{.jX8 P D.gXdX>X$X!.+XC.1.1.f.4.6.|.f.1.P 4X4Xg.7 y ",
"z.y.< ].N.( u.9 lXk.>.4.eXA.&.b.<X&.[.eX% 2XrXh.2X>.!.>.f.>XlX4.x.6.7.!.;X#.3.uX5X#.!.D.3 l.D.D.&...0 V.1.} l. XiX3Xx.j.sXz.3.! ",
"z.qX].>.4Xk.fX&.A.@.5.h.cX3X$.sXlXu.z.# 0 5.+X#X5Xh.h.8XA.>XuX5XiXl.%.2 <X!.b.7.3X X#.} -.D.j.1.XX6 } f. X{ V.1.f. Xx.6.8 S._.u ",
"z.0XN.Z.S.gXeX` d.z.A.V.cXdX5.8XlXbX@XZ.-.m.D.gX-X1XP  XbXcX*XV.:X XA.z. Xh.V.3.-.d.-.3 $.f.6.C 2 V.d.V.|. XtX X>X|. X|.&.1X=Xy ",
"( z._.).-X=Xz.% |.#X1.@.lXlX3XcXxXdXdX5.- 3.h.gXkXyX7 D.bXlX3XlXcX|.f.dXcXuX+X3X7.4.0.= @.6.6 Z.D.|. X4.} .XiXiX>XyXtXuXyXyXz.r ",
"* z.( 9 &.$.x.5X3X@.1Xg.- bXcXbXfX@.- <X` 7.G.G.G.3X@Xl.lXuX} = 0 l.+XcX XA.uX&.d.D.l.#.1.6.D.3X} x. XiX3X} l.tX1.uXsX%.G.iXz.b ",
"e.n.[.[.+X2 4 _.9 Z.sXG.+XbXcX2 F.- &.4X%.x.G.x.cXyX7.5XuXf.3XyX$Xx.@XbXl. X|.iX3Xf.f.} @.Z.0 ; f.B. Xf.1.3XiXiX3XiXz.l.F.x.l.^ ",
"].z.t.0Xr._.G.2 %.gXgXgXjXdXlXgXjXsX XdX= 3.2X&.gXgXA.yXlX3X#XD.Z.x.|.xXcXxX X XB.B.4.R.Z.} 9 } { f.1.d. X>X>XtXx.5XC.3.D.3Xz.m ",
"=XwXn.>.u.sXsX,Xh.cXhXxXB.z.xXjXbXbXh.#X` D.h.6 uXcX+XgX<.7.F.|.$Xd. XgXgXtXd.l.3Xh.R.f.} %.1.B.2 - } l. X|.tXB.} 3X{ z.5Xz.hXh ",
"zXzXz.zXzXgXjXlXbXjX6 3X2 ( 8 &.cXxXnXbXjX_.D.{ nXcXxXxXgX@.D.xXxXsXtXbXbXbXxXgX1.(.7.; 6.1.1.1.l.{ 2 f.; |.|.l.yX{ l.<.0 z.6.t ",
"zXzXz.0X7 zX0XlXhXfXsXZ.z.{ 1 C.%.yX#XF.= =XsX>XnXbXbXnXbXgXbX5Xl.F.#X6.#XiXgXgXkXF.d.d.j.V.g.|. Xf.|.1 7 6.d.1 d.8 :Xg.fXz.g.r ",
"Q 2.2 z.9 _.5.#XF.:XOX3XOX1.6 <.#Xg.O.  X F.$XvX|.bXnXnXtXC.,XOX3XB.3X#Xd.l.$XQ.{ A.%.:X%.1.d.B. X|.l.} 7 { <.d.#XC.F.tXZ.oXr q ",
"W r.a.z.%.C.- O.tXaXC.F.yXh.- g.6.#X<X7 F.6 7.jXO.nXnXnXhXsX#X{ 1.9 7 O.+X#XpXl.4XtX{ O.d. X3XtX{ B. X3X6 { g.%.d.B.C.yXr r.r e ",
"W.W.zX4 z.n.O.= nX#XG.xX1.1 1 <.oX8 |.{ 6 B.nXaXoXB.nXnXbX,X=XhX4X=Xd.4XsX0.iXxXxXOXl.d.yX<XsX|.|.|.{ d.= g.l.{ 6 d.aXn.n.y u u ",
"R.H./.zXz.zXhX2._.hX,X;.h.n.O.;.4 7 %.z.B.oXOX;.,XtXvXnXtX3X4X,XoX9 6.Z. .C.T.F.oXz.A.@.<XB.hXz.:Xd.|.1.tXOXOX|.d.hXaXn.f Z.y r ",
"J.K.R.zXaXz.,X_.2 aXg.6.0Xj.( O._.L.Z.#Xg.6.+.g.OXG.vX=Xg.vXvXO.|._.#XW.vXhXn.2.C.Y Z.R.3X:XaXvXiX:X<.D.OXg.|.OX+.w z.+.h f Z.y ",
" .B 8...B ( z.r.#.0Xr.N._.+.Z._.aXOXg.C.4X0X0X+.g.,XvX2.O.z.hX5Xg.hXB F./.Z.2.OXz.7 r.z...C.hXhXxX:XoXyX+.+.d.2.oXC.x =Xf f y Z.",
"(.U.c ..E kXn.z.@.zXfXvXe.- 4 n.0XzXaXzXF.g.r.( vXvXvXOXC.r.hX,XC.A hX( 3XOXC.aX7 1 g.7 O.H C.aXaXhXaXhXtX( = _.g.hXF.+.h v g h ",
"| J.G V  .pXS.z.O.=X)._.g.= - +._.r.2.).R.2.r.hXH Z. .C...Z.V Z.T C.oX7 V F.oXhXOX+.2.r.+.m.6._.,XOXOX0XaXaX_.n.z.aXQ Z.I m.j Z.",
" .T .XA 6XiXE l.n.=Xr.n.e.4 ( r.=XZ.=XOX0XQ 0XzXZ.r.zXOX_.2.z.9XaXaXA.W r.+.OX6.g.2.n.- Z.U.;.;.oX7 4 +.g.oX,Xz.hX0XW./.K.r Z.r ",
"/.T pXA T kX..| ( g.=Xn.8.Z.( r.zXC.U.F.L.=X8.n.rXD.zX0X< ( H C.A Z.,XzXN tXn.( r.Z.P F.n.OXOXn.OXn.= g.=X,Xz.0X0XX.E Z.r Z.d Z.",
"K.o.S G Z.9X9Xw.H H.z.U.W I n.J Z F F./ Z.K Z.&Xm.w.Z.pXC.W..Xw.F.E Z.G Z.N C.6XZ.I.L.H.Z.i |  .K T.$Xz I.n.g y y J.c v Z.f y v ",
"Y c Y Z.c Q I./.8.H | z.z.R..XC.a F.C C K Z.H.Z.pXZ.9XA.H.z W.z T.Z.c m.L.E H.b.^.K.X.s F w A Z.Y.9XU.C.k A.k Z.p m.c Z.b Z.q s ",
"o.U.U B R o.X.U T XX..V U H.C...Z.~ Z.F 7XT.Z.kXD.9XZ.6XC.H.C.z Z.R.Z.c Z.F w q Z.~ Z.g Z.p w v V.w Z.q Z.i Z.i Z.Z F y Z.h C.v ",
"| U N Z.Y V  .U.H.D V Z.V C 8.X.i n.i Z.9X~.z R.6XC.T.: 7XT.x B c Z.a n p F.f m.q A.q f g Z.d p d A.h C.M Z.z Z.x Z.q p q Z.r h ",
"X.S c D ....C.V F. .Z.J.U ..F.z.z.E C.D V.L.C.S T.K Z.6Xm.C Z.Q Z.n Z.a Z.M M m Z.m r y Z.p C.z.z.v B.p p p Z.S Z.g Z.h m.v Z.d ",
"G G C.C.U H.| N W.C D C x I.a ..X.z.z.Z.| Z.E T (.m.Y Z.z m.Z Z. .I 8.i a c n m M A.p Z.v Z.f Z.d g n R ^ i k Z.d q k A.f p p Z.",
"k n C U W V a .XW.W V ..: .XC.i Z.H.Z.z.z.z.H.E 9XH.W Q C.y Z.I T.H 2XT Z.L.Z.i Z.h Z.l.x.h f f f d Z.o.F.^ V.s Z.r Z.l Z.U w.H ",
"a X.B W.(.z z T .X(.B D E U c A x P.x T P.L.z.z.z.z.~...R q w B T H.9X(.6XT x.z.z.z.g f d d h j m h g Z.d Z.F p w d w _ 9XZ.6XZ.",
"| B G Y H.E L.D H.E D ^ G | I x U.N E z H.W.8.L.E H z.z.z.k.n.z.z.z.z.z.x.z.z U.N s s h p y d h f h g j Z.d A.d Z.H Z.~.Z.6X6X(."
};