/* XPM */
static char *result[] = {
/* columns rows colors chars-per-pixel */
"64 64 256 2 ",
"   c #000000",
".  c #0B0909",
"X  c #1A0704",
"o  c #18110E",
"O  c #1C1513",
"+  c #230501",
"@  c #230B04",
"#  c #2B0B03",
"$  c #2A0907",
"%  c #350A05",
"&  c #2A120B",
"*  c #37150A",
"=  c #390F10",
"-  c #281916",
";  c #371A14",
":  c #1C251B",
">  c #2C231D",
",  c #3A241B",
"<  c #2A2725",
"1  c #392B25",
"2  c #38362E",
"3  c #450B05",
"4  c #471809",
"5  c #52110D",
"6  c #471A15",
"7  c #551916",
"8  c #651912",
"9  c #51250D",
"0  c #492519",
"q  c #572719",
"w  c #59311C",
"e  c #68281B",
"r  c #653319",
"t  c #723017",
"y  c #482A23",
"u  c #552B26",
"i  c #47342A",
"p  c #5B3328",
"a  c #473935",
"s  c #5A3C36",
"d  c #682925",
"f  c #732D23",
"g  c #762A28",
"h  c #693628",
"j  c #773829",
"k  c #772A35",
"l  c #6A3A34",
"z  c #773934",
"x  c #344437",
"c  c #4F453C",
"v  c #79462A",
"b  c #6D4837",
"n  c #774737",
"m  c #7C3A48",
"M  c #3C4B43",
"N  c #515049",
"B  c #794745",
"V  c #68534D",
"C  c #73655A",
"Z  c #5B6B61",
"A  c #70756F",
"S  c #872B25",
"D  c #85392B",
"F  c #8C2C31",
"G  c #982C38",
"H  c #863935",
"J  c #9A363C",
"K  c #A9272C",
"L  c #B2292E",
"P  c #A62B37",
"I  c #AC2D3B",
"U  c #B22A36",
"Y  c #A4333D",
"T  c #A93338",
"R  c #AB323C",
"E  c #B43338",
"W  c #B3323C",
"Q  c #944B1C",
"!  c #864929",
"~  c #98492B",
"^  c #95532B",
"/  c #874637",
"(  c #96473B",
")  c #875339",
"_  c #965A39",
"`  c #A44F35",
"'  c #A65937",
"]  c #9A613B",
"[  c #AA6439",
"{  c #B96A3B",
"}  c #BE713D",
"|  c #C56D39",
" . c #883A4A",
".. c #923146",
"X. c #9C3444",
"o. c #973948",
"O. c #963C52",
"+. c #A33443",
"@. c #AC3444",
"#. c #A83846",
"$. c #A53B4B",
"%. c #AC3C4C",
"&. c #B33443",
"*. c #B33A44",
"=. c #B2374B",
"-. c #B33C4B",
";. c #B83A48",
":. c #A73E52",
">. c #894A46",
",. c #984747",
"<. c #8A5748",
"1. c #995648",
"2. c #8C4756",
"3. c #944354",
"4. c #9A4658",
"5. c #934B5B",
"6. c #9B4B5D",
"7. c #89545B",
"8. c #985658",
"9. c #A8424B",
"0. c #B4434C",
"q. c #BB424D",
"w. c #A6574C",
"e. c #A74657",
"r. c #A24B5D",
"t. c #B54353",
"y. c #BC4554",
"u. c #B74A5A",
"i. c #A95955",
"p. c #B45955",
"a. c #9B6447",
"s. c #936356",
"d. c #A96843",
"f. c #A86557",
"g. c #B5655C",
"h. c #B27550",
"j. c #9C4D61",
"k. c #8C5B63",
"l. c #9C5363",
"z. c #995966",
"x. c #A74D63",
"c. c #B74C61",
"v. c #A35464",
"b. c #A95565",
"n. c #A4556A",
"m. c #AB556A",
"M. c #A45B6B",
"N. c #AB5B6C",
"B. c #B65868",
"V. c #AD5D71",
"C. c #B65D73",
"Z. c #99636B",
"A. c #8E756F",
"S. c #9C6973",
"D. c #A6636C",
"F. c #B76966",
"G. c #AD7263",
"H. c #B77767",
"J. c #A46472",
"K. c #AC6473",
"L. c #A46B76",
"P. c #AB6A76",
"I. c #AD6C7A",
"U. c #B36374",
"Y. c #B76676",
"T. c #B46C7C",
"R. c #BB6A7D",
"E. c #A8737B",
"W. c #B6747B",
"Q. c #C94E57",
"!. c #C44B58",
"~. c #C67A49",
"^. c #C35765",
"/. c #C6536B",
"(. c #CB6F6A",
"). c #C46778",
"_. c #C47877",
"`. c #7D856A",
"'. c #9E8473",
"]. c #BA8665",
"[. c #A88779",
"{. c #BB8477",
"}. c #CB8B5B",
"|. c #CD9069",
" X c #C58779",
".X c #C79478",
"XX c #DDA37C",
"oX c #9D7C80",
"OX c #BA6E80",
"+X c #AC7882",
"@X c #B47481",
"#X c #BB7483",
"$X c #B97B87",
"%X c #C36D82",
"&X c #C27385",
"*X c #C87788",
"=X c #C37C8B",
"-X c #CF7D8F",
";X c #EE7F90",
":X c #AA898A",
">X c #B68387",
",X c #BC838D",
"<X c #BC8A93",
"1X c #BB9599",
"2X c #A4A39C",
"3X c #C6838B",
"4X c #C99789",
"5X c #D69389",
"6X c #C38592",
"7X c #CB8492",
"8X c #C58B95",
"9X c #CB8C99",
"0X c #D78796",
"qX c #D48C9C",
"wX c #C79599",
"eX c #CB939C",
"rX c #D3939E",
"tX c #D9989B",
"yX c #E39193",
"uX c #D1A48A",
"iX c #D7A89A",
"pX c #E6AB98",
"aX c #CB9AA2",
"sX c #DB91A6",
"dX c #D997A4",
"fX c #D39AA4",
"gX c #DC9DAA",
"hX c #E49BA9",
"jX c #CAA5A9",
"kX c #D5A6AB",
"lX c #DBA3AD",
"zX c #D6B3AA",
"xX c #D9AAB1",
"cX c #DCB6B9",
"vX c #E5A5AC",
"bX c #E5B9A9",
"nX c #E5AAB6",
"mX c #E4B3BB",
"MX c #E8BAB9",
"NX c #F4B5BE",
"BX c #D5C3B8",
"VX c #EAC5BA",
"CX c #F2CDBC",
"ZX c #DEBFC2",
"AX c #EABBC2",
"SX c #F6B9C4",
"DX c #DBC7C8",
"FX c #E7C7C8",
"GX c #F5C6CA",
"HX c #F4D4C8",
"JX c #F9CDD3",
"KX c #E9D3D3",
"LX c #F7D8D8",
"PX c #EEE1DE",
"IX c #FBDFE0",
"UX c #F3E6E4",
/* pixels */
"n.2.n.-XV.V.*XM.Y.v.R.b.n.nXR.=XL.qX&XK.I.OXC.J.$XM.$X@.).N.$XGXW.N.u.b.x.R %.o.:.+.%.B.v.o.kXmXmXlXgXcXkXnXjXxXB.U G L L K K K ",
"*Xx.m.C./.).).B.N.eX,X@Xz.fX2.I.AX@X*Xz.z.cX1Xm AXj.eXG o. .$XeXD.4.G $.B.e.3. .hX,.%. .Z.jX>XL.2.C.j.aXz.V.<Xv.^.=.-.K K !.U L ",
"j.O.x.B.).).).V.W.dX&X-XsXz.@XT.$X@X4.O.m cXUXj.FX5.eXr.B.N.tXrX*Xi.o.o.x.m.&XK.k.6.K.eXD.JXqXm.4.3.fXAX,XK.mXO.$.-.q.I q.!.W U ",
"qXO.x.x.7X3.m.N.R.m.m.C.I.9X6XR.@XgXl.j. .M.<XsXoXT.@Xz.Y.W.nX>XkX,X8X>X<Xm.n.n.I.nXMXkXZ.kX,.9.X.Y.$XrXtXr.U.X.%.@.&.W W W W Q.",
"n.O.m.x.sXK.B.B.x.m.m.U.l.aX6Xj.T.K.J.k. .l.V.j.<X7X5.gXb.W.7.xXKX1XxXAXDXP.OXV.xX>XwXxXcXBX5.X.-.@.+.O.e.c.4.X.+.Y *.R E E P Q.",
"C.m.x.x.x.sXN.OXV.*Xj.#Xn.l.2.x.m.l.M.3.O.,XV.O.5.fX6XdX9XY.W.D.+XwXaXmXAX1XC.m.rX$X=XzX+XzXr.X.P R t.Y e.hXmXcXJ Y *.W E U !.K ",
"..:.x.B.R.%Xn.vXI.C.N.j.@XgX@XOXz.$XM.K.l.=X .%X>.z.2.k D.4X9Xb.nX=X .0X9XAXN.m.gX8XnXxX@XDXr.@.R 0.9.w.Z.L.KXPXD.9.0.;.E E E E ",
"e.X.O.*X&XV.N.K.sXn.R.#X6XdX#XU.5.J.Y.P.9X=XM.O.k aX#X .e.U.8X<XS.aX#Xj.kXxXl.m.N.vX6.z.OXAX$.#.9.u.$.B.3XvXmXKXcXJ W U E L E U ",
"R.:.e.c.B.U.U.N.&Xe.j.x.M.8XK.#Xz.j...&X$X3.gXo.b.P.8X5.fXY.8Xz.kXeXT.l.,XfXz.e.e.L.R.W.B.fX$.o.e.%.+._.fXfXcXKXcX/.I W K L L E ",
"6.m...r.*XR.qXqXOXO.x.C.V.OX%X*XR.b.O.T.Z.J.eXN.V.r.                      lXE.6.G 9.7X8.M.8.>XX.U Y +.$.hXgXfXGX,.;.L W L E ` ^.",
"5.v.).m.V.&XsXhXY.*Xl.OXM.M.*X=XV.n.R.7Xv.K.xX    . o : i a a a a i a 1 O . :   0.J 9XaXe.b.mXt.W ;.$.$.xXcXxXU.X.I ;.&./.(.U !.",
"gX3.b.U.sXdX*XV.$XaXlXlXM.-XrXL.6Xn. .n.      2 p V k.[.iXzXzXbXVXbXpXjX'.C E.2 .       b.N.-X$.&.q.Y R $.u.-.;.*.T ;.y.(.Q.U q.",
"kXl.x.N.#Xj.I.R.$XmX<XrXI.K.M.+XgXOXl.    . s [.{.4XkXiXuXzXjXVXzXVXVXVXVXbXpX>XA.V .     3.:.r.-.U I c.y.I y.9.&.W 0.y.;.U ;.&.",
"8X5.x.-X#X=XC.I.xXSX$XrX@Xz.n.=XsXj.    i s._.4X4XuXuX>XwX[.4XVXiXjX4X4XzXiX5XVXdXxX+XV .   u.x.t.U K /.^.Y ;.!.u.E Q.-X;X/.!.E ",
"n.l.C.$X$XnX@X$XfX<X$XgX9XsXj.n.T.  > 8.G.H..X.X4X X[.uX>XuX5XuXG.5X{.]. X(.5XtX*XdXmX:XV O     @.!.P u.!.0.;.y.!.R Q.t.c.u.;.W ",
"OXV.M.dXlX8XgXAX@XAX=X9XaX@X#X#X  @ f.F.H.H._. XG. XG. X{.H.bX Xf.1.yXp._._.p.J p._.dXgXaXC o     Q.&.=.;.I &.@.q.E Q.-.!.Q.T Q.",
"j.j.n.OX=X=XhX=Xv.+XM.8XJXnXgXV.. p.g.g.H.f.H.d.G.4XG.i.G./ w.g.1.D ( (.`  X(.(.9.F.F.U.qXnXxX>     @.u.y.R #.%.R P W 0.Q.U W 0.",
"K.5.4.V.OXOXgXqX3.l.6.l.7X%X  O w.p.p.w.w.( ( f.1./ j e ,. X( f H h.w.S g S (.p.J F o.N.R.dXnXcXC     #.-.I t.t.;.(.R R q.K E W ",
"l.l.x.m.eXgXxXAXN.9X-XqX7X  - 8.i.w.( ( w.g.( f.( ]./ D w.,.G.D 8 1.! g D p.f S e F o.o.r.Y.rXAXAXa <   I W ;.y.;.y.t.^.y.R W 0.",
"gX@Xj.n.gX5.AXAXj.R.@X      l ,.g.( w.w.( ( / e 7 f H ( {.f./ ( D j >.f ( G 7 F 7 g z F ,.4.N.mXMXFXA.    R &.-.&.P ;.Q.^.R E W ",
"OXnXm OX=XO.j.$X-XqXnX    y ,.w.w.D.J D w.w.i.5 f f D e j g 8 f W.d 0 / ( ( e ` 5 6 5 g o.i.F._.pXMX:X.   #.=.-.!.0.q.!.T W K E ",
"sXn...OXn.m V.OXz.@X=X    z p.p.( w.w.! _ g.g.f.8 e 6 3 f g.( d.( J j (.,.S 8 T ,.k = 7 7 / ,.5X(.NX1X>   0./.!.*.P q.#.y.J p.J ",
"ZXj.j.j.%XOXx.&X$XmX    u i.w.g.( / J 8 8 f j p.f 5 4 5 8 d / yXg z d J 6 % ( 3 (./ 7 N._._.S ( (.pXVXC     !.!.R @.R R &.&XGX3.",
"j.OX-Xx.O.n.n.n.qXgX  > >.w.w.F.D G.n / f f.1.5X1.f D f f >.8 5 3 F % d p.F.9.+ + 5 >.d 8 # G.(.uXbXVXDXN   ;.-.I W R Y $Xe.qX8.",
"jXoX-XOXOXm.x.m j.$X. O / g.( F.D h '.s.e / f 5X,.H >./ _.( >.e e 7 S i.u % G + B $ 3 z ,./  Xw._.CXVXFXV   -.I @.&.P @.GXl.MXZX",
"-XOXj.n.n.m O.OX-X-X. a p.i./ j j G.'.n / 1.t D.D w.,.D J z 1.z A.`.8.y d u d # & 6 H 1.G.d z (  XbXMXFXA . -.t.!.;.&.G 7XU.8XFX",
"OXO.x.OXOX5.x.OXsX  . y g.H./ ) H.j v h h >.w.* 5 5 z w.H 5 z 5 e 4 N B 7 6 y + 3 B 6 l h = f / .X5XiXVXcXa   -.t.-.-.+.*XK.z.hX",
"O.OXOXOXAX=Xj.%X9X  . m w.f.( s.[.n / j 1.h H.l d 7 n i.,.H 5 l 4 % & ; 3 5 8.% % 3 z d h 7 f 1.f. X4XVXJXN   y.-.0.t.*.8.GXlXF.",
"nXn.x.%XOXn.n.%Xj.  - 8.f.f.v B C _ r j <.0 7.>.$ e d J / f 5 7 7 % ; ; s , 6 $ q 6 l h l / / 8.H.4X4XVXHXN   &.I P *.-.S tXlXb.",
"j.nXoXm OXj.n.OXOX  > f.g.s.A :X9 j d j b * <.z $ 1.z j h 4 % % z 7 = d Z y $ $ k % 6 0 q h B n H.5XH.VXHXN     I !.-.t.+.e.0X5X",
"OX+Xj.@X=XmX-XoXgX  - 8.f.<.:X2X/ e y p 0 0 * % 4 G.l $ = 5 + % 3 ,.0 3 N , X X b y {.l + d h 8.1.1.H.iXHXzX-   W -.y.%.%.0.^.^.",
"OXOXJXOXOXm KXxX+X  - 7.( <.v Z 9 r b q 7 # + 6 @ X 7 g 7 d 7 6 5 ,.k u 4 2 @ + 1 & l ; m p >.5 1. XpXiXFXHX<   U !.R t.+.y.R &.",
"l.sXR.j.*XaXE.U.U.  - B f.1.e j 2Xc A 2 y , @ % $ n + X z 7 + u B 1.8 % 8 u % 2 $ y 8.% l H.l p _ 1.zXzXHXHX<   t.-.=.%./.y.-.;.",
"$X<X6XgXgXgXrX7X6.    u 1./ _ 4 r 2 x Z x , 0 b k % + + % % % y F.6 % % $ 7 6 < p % + 6 0 n h n ) 1.{.bXCXHX<   @.t.W t.!.=.q.y.",
"cXSX#XdXgXW.&X<XD.    0 ( d.t 9 q A Z c : * @ 0 * ; % 5 % = & 6 D j % = $ = < @ 6 X 6 q % h / f.a.f.G.iXVXLX<   *.U E ;.u.t.*.@.",
"j.j.R.7XgXAXhXT.&XN.  0 ~ / ! d r B V & & , & n , @ $ ; y a ; ; 6 l y u $ - - 6 s l y ; 6 f <.) G..X|.iXHXVX<   y.E W P =.R T q.",
"O.3.8XlXgXnX>XV.v.V.  0 ' ~ ~ ! 9 0 N , & # & & i 1 < N N M : > 4 p 0 V V q = u & B s * 6 v ) f. X.X.XVXHX`..   @.W =.-.;.&.E W ",
"m.M.xX1XAXhXl.J.nXK.  - / ~ D ! r w N w , y w @ Z A a , > N 2 O + 6 u O y * @ * b # 0 u p h a.].a.G..XbXCXc   l.+.&.#.W =.=.y.&.",
"&X9XxXmXnXqX..7XN.M.    w ~ D f v , N , h w A A A Z & y u - $ X $ = * ; ; h B = = ; % & & w y v ].]..XVXCXc   tX+.y.%.&.Y y.I P ",
"OX$XxXgXJ.L.n.W.2.5.OX  r ` ` ~ j v w * & w * - O A @ $ $ X + + X X < 2 X $ - s.- $ * @ # <.h.) ].a.iXVXC o   r.:.+.%.-.P -.-.t.",
"j.P.xXlXJ.GXM.M.o.qXz.    j ^ d.4 r 0 v s.r # @ o C @ & @ X X n y X O - $ $ + X X s.# 4 r 9 9 ].] .XpXVXV     X.o.o.P +.+.-.B.).",
"M. .sX$X8XV.x.m.S 8.I.C.  c ' ~ j ^ h ; * # & 0 @ N & & X @ @ + l - M i y - & X % 0 # q r r r ].uXXXpX:X<   b.B.6.,.I Y P R !.u.",
"j.@X+X5.e.v.n.b.9.K.SX3.m.  j ~ ! t n b h 9 % b @ ; c b & @ X & - - A N + & p @ * @ * ) v v v .X].uXuXb   3.o.).GXi.@.P 0.U W *.",
"8XSXj.z.K.2.3.r...$.e.9.).  o ` ~ ! n r w * 4 b @ ; i c , @ , o = - Z N + @ # # # 9 w v v ].] ].].uXC     u.X.$.SXo.;.P u.^.P U ",
"S.$X7.j.*X..Y.^.c.u.C.U.r.C.  0 [ Q ! ! n 0 4 w w r * > * + 0 & y & 2 , # * & # @ w ] ] ] a.]..X|..X:     X.J u.-X$.P I 9.0.*.L ",
"OX$X<X8X4.r.r.,.).c.b.R.7X7X    0 ' ` ^ v w c 9 h 9 * * * w 0 & ; 6 & & 4 9 * v 6 4 ! v ] ] }.XXiX1     e.o.:.$.:.=.P G @.G G P ",
"E.dXwXkX3.2.U.e.B./.K.z.6.E.V.    0 [ [ _ ^ 9 9 j t 9 4 % 9 * * h * # * 9 p * 9 ! v ! ] ] ] |.XXC   W.mXZ.Y.3.v.=.&.@.W P T T K ",
"xXgXAXmXI.mXcXvXV.S.7.5.4.vXZ.aX    0 [ [ [ ! ] r n 4 * 9 r # w 6 h r % # r r 9 4 ^ } d.}.}.XXBX. x.6XcX9X6.6.o.0.&.*.9.@.T E E ",
"gX$XmXaXK.cXOXx.fX9XfXL.8Xk.I.OXJ.    0 [ d.d.' v v ! ! 9 ^ ) 4 ^ [ r w v j [ ] Q h.}.}.|.|.-     3.wXDXn.6X7XX.T L W 9.#.@.R P ",
"9XqXgX9X#XSXl.O.j.K.N.5.1XaX&Xn.O.0X      h ' d.Q ! j _ _ d.v ^ ] r r Q _ ! ^ { h.}.}.}.}.1     4.3.AXFXmX6Xv.$.G F %.t.-.@.P P ",
"@Xj.$X$Xl.xXz.3.@XnX%XP.GXz.2.n.2.M.+XAX    O v { d.[ { [ [ [ ' Q ] [ ' Q Q [ ~.}.}.a.c       DXO.*XfXAXFXM.O.r.=XNX8.+.#.@.R Y ",
"AXfXj.#X@XIX+Xm.4.e.-XDXPXS.j.-Xj.OXS.@X6XdX    b v v d.{ { { h.} { } | | { | _ ) b .       mXZ.2.B cX .@Xm $.J J SXb.-.$.9.#.%.",
"OX6XOXk.@XLX).O.b. .K.JXPX:Xz.@Xl.OX5.j.gXOX$XOX    o i u w b h.] [ v b b w w - .     E.xXaXxX>XK.lXjXJ.AX5.X.+.&.tXW.o.F.%.&.*.",
"+XK.AXM.AXPXR.M.7.3.).@X>XJXqXm &XOXOX2.qXOX$Xl.zX          o > O : . o .       8.<XIXjXdXdXnX8XL.NX<XM.fX%X+.I G K.zXnX0XP -.P ",
"nXL.JXM.@XUX+X@XJX$X5.E.$XhXm M.#XnXgXS.qX2.$XS.PXZXZ.UXaXjXZ.S.M.nX7.s.7.I.N.DXjX .L.m 4.).l.rXlXaXjX5.aX .+.+.w.).Y.X.P G %.Y ",
"7X7XC.U.V.JXKX<Xk.7XsXaX+XV.S.S.m.x.OX&X-XS.xXDX@X1XKXPX1XkXAX1XL.R.).Y.Z.j.@XDXDXjXwX3Xe. .@X@XS.jXDX2.sX).#.I Y 0X4.:.&.@.I $.",
"K.5.K.=X3.T.aXnX7XZ.#X&X=XkXcX@X3.c.x.b.S.6X1XUXUX:XKX+X9X2.kX7.jXz.4.4.rXY.3XvXhXhX&Xo.B.F N.K.hXJXlXm.:...$.$.+.N.r.$.0.9.G o.",
"=XsXK.l.Y.0X#XJ.P.SX@Xv.J.8XaX$Xj./.B.c.KXjXV.UXIXLX+XGX<X8XP.2.mXlXhX,.vXB.F +.G /.J @.#...G o...F G G .. . .O.4.v.B.Y I %.Y 9.",
"OXV.j.z.K.z.@XfX<XU.z.1XZ.x.$X$X .C.H :.JXBX .kXDXAXgXV FXgX5.j.4.4.O.e.X.X.@.+.X.u.G @.%.X.+.X.+.%.$.o.b.0X2.$X4.3.G +.P P P %.",
"%XV.4.K.@X@XgXz.I.E.8X9XV.OX5.5.l.T.6.K.KX8XeXC.fXoXaXFX&Xl.v.@Xb.4.O.O.O.i.u.u.u.t.K +.+.X.X.:.:.e.9.@.X...o.V.Y.#.@.$.X.,.$.@.",
"Y.C.m.M.K.<XOXj.kXv.N.r.5.aX .@X$XfXwXfXOXS.OXK.AX2.L.1XO.5.v.P.@XK.:X>.o.O.e.c.i.u.o.#.9.*.=.@.+.#.u.V.)...9.:.+...e.#.+.J X.X.",
":.j.j.J.L.z.O.AXxXE.z.=XB FXU. .j.7XI.AXj.7.8XK.SX1X+X+Xz X.=.D.jXZ.KXS.z.aXE...+.%.+.%.:.%.+.#.+.+.G *X0X).N.X.I P @.o.2.J.<XZ.",
"..%Xj.nXmX5.2.Y.AXNXr.N.P.J.4.M.5.sX5.S.sX1X>X .,X+XmX$XF.G J i.S.8XGXMXFXP.NXP.3.o.#.+.#.+.%.%.t.-.#.%.#.c.B.X.G X.G >XJXFXDXKX",
"@Xj.C.P.<XY.aXN.6XI.V.).C.&XN.7.fXj.OX5.-XxX<XaXI.z.xX,Xm.r.E.,X$X&X5.D.aXR.2.lX6. .+.%.+.Y +.#.=.%.#.%.#.+.+.X.6.z.l.cXKXFXFXmX"
};
