/* XPM */
static char *_f13803b72034e5fc2ba516d077a5218dELCM0vyKK4F3zk5[] = {
/* columns rows colors chars-per-pixel */
"64 64 255 2 ",
"   c #782838",
".  c #76333C",
"X  c #7B3946",
"o  c #7F3548",
"O  c #78444D",
"+  c #735054",
"@  c #7F6164",
"#  c #881A2D",
"$  c #8E2C33",
"%  c #8B2B3A",
"&  c #9B2B36",
"*  c #942D3B",
"=  c #9B323D",
"-  c #A9272C",
";  c #B2292E",
":  c #A42A35",
">  c #AC2C35",
",  c #A92339",
"<  c #A42C3B",
"1  c #AC2D3B",
"2  c #B22A36",
"3  c #A4333D",
"4  c #A93338",
"5  c #AB323C",
"6  c #B43338",
"7  c #B3323C",
"8  c #863646",
"9  c #843D4D",
"0  c #8B3B4C",
"q  c #903045",
"w  c #9D3443",
"e  c #983646",
"r  c #943B46",
"t  c #943A4B",
"y  c #9C3C4C",
"u  c #933C52",
"i  c #9B3C51",
"p  c #AA2F43",
"a  c #A33443",
"s  c #AC3443",
"d  c #A43A45",
"f  c #AB3A45",
"g  c #A73549",
"h  c #A43B4B",
"j  c #AC3C4C",
"k  c #B23543",
"l  c #B33A44",
"z  c #BA3A44",
"x  c #B3364B",
"c  c #B33C4B",
"v  c #BB3D4C",
"b  c #A73D52",
"n  c #B73E53",
"m  c #8B424E",
"M  c #97424C",
"N  c #8C4353",
"B  c #884754",
"V  c #8D4C59",
"C  c #944354",
"Z  c #9B4455",
"A  c #9A4B55",
"S  c #944559",
"D  c #9C455B",
"F  c #934B5B",
"G  c #9B4B5D",
"H  c #89535C",
"J  c #93535D",
"K  c #9B525C",
"L  c #AC4142",
"P  c #A4414D",
"I  c #AC414D",
"U  c #B3424C",
"Y  c #BB424D",
"T  c #BC4B4E",
"R  c #A34354",
"E  c #AC4253",
"W  c #A94957",
"Q  c #A4455B",
"!  c #A24B5D",
"~  c #AB4B5C",
"^  c #B54353",
"/  c #BC4554",
"(  c #B34C5B",
")  c #B94959",
"_  c #A7545E",
"`  c #B6565D",
"'  c #954E62",
"]  c #9C4D61",
"[  c #8D5A62",
"{  c #955462",
"}  c #9C5363",
"|  c #955A65",
" . c #9B5A66",
".. c #995A69",
"X. c #9D5C6A",
"o. c #A34C62",
"O. c #AB4E64",
"+. c #B54C62",
"@. c #A35464",
"#. c #AB5264",
"$. c #A45A65",
"%. c #AB5B64",
"&. c #A4566A",
"*. c #AB5569",
"=. c #A45B6B",
"-. c #AB5B6C",
";. c #B35463",
":. c #B35B6C",
">. c #B9586A",
",. c #A05C73",
"<. c #AC5D71",
"1. c #B35D72",
"2. c #BA5C73",
"3. c #95636A",
"4. c #9C636C",
"5. c #9A6772",
"6. c #936B71",
"7. c #9C6B74",
"8. c #A3626D",
"9. c #AB616D",
"0. c #B6636D",
"q. c #A56472",
"w. c #AC6474",
"e. c #A36B75",
"r. c #AB6A76",
"t. c #A86979",
"y. c #AD6C7A",
"u. c #B36374",
"i. c #BA6474",
"p. c #B26A75",
"a. c #BB6973",
"s. c #B36679",
"d. c #BC657A",
"f. c #B46C7C",
"g. c #BB6B7D",
"h. c #A5757B",
"j. c #AC737D",
"k. c #B2727D",
"l. c #B9757E",
"z. c #CA4B53",
"x. c #C34B58",
"c. c #C8525C",
"v. c #C35565",
"b. c #C5566E",
"n. c #CE6C76",
"m. c #C46778",
"M. c #9D7C80",
"N. c #B56F80",
"B. c #BC6E81",
"V. c #AD7581",
"C. c #A77B81",
"Z. c #AD7B82",
"A. c #B47481",
"S. c #BB7484",
"D. c #B57B85",
"F. c #BB7A85",
"G. c #B57C88",
"H. c #BD7C8A",
"J. c #C36D82",
"K. c #CC6D81",
"L. c #C27485",
"P. c #C77687",
"I. c #C37C8B",
"U. c #CA7A8C",
"Y. c #D57C8B",
"T. c #CA7E92",
"R. c #AA878C",
"E. c #B3838B",
"W. c #B98588",
"Q. c #BC828D",
"!. c #AA8F93",
"~. c #BA8A92",
"^. c #BC8B93",
"/. c #AF9696",
"(. c #BC9599",
"). c #BE9EA1",
"_. c #C3828D",
"`. c #CA828D",
"'. c #D6858C",
"]. c #C48491",
"[. c #CB8492",
"{. c #C48A95",
"}. c #CB8A95",
"|. c #C78B99",
" X c #CC8C99",
".X c #D58796",
"XX c #D38C9C",
"oX c #C4939B",
"OX c #C7969A",
"+X c #CA939C",
"@X c #D3929D",
"#X c #D6959D",
"$X c #E18B99",
"%X c #C899A2",
"&X c #CC9BA3",
"*X c #D595A2",
"=X c #DB93A3",
"-X c #DB93A7",
";X c #D39AA4",
":X c #DA9AA5",
">X c #D69CAA",
",X c #DC9DAA",
"<X c #E797A8",
"1X c #E39CAB",
"2X c #C9A5A9",
"3X c #D3A4AB",
"4X c #D6A7AB",
"5X c #DBA3AD",
"6X c #DFA3B1",
"7X c #D5ACB1",
"8X c #DBABB3",
"9X c #CCB4B3",
"0X c #D6B5B7",
"qX c #DDB4BA",
"wX c #DBBBBD",
"eX c #E3A4AE",
"rX c #EBA2AD",
"tX c #E3A5B2",
"yX c #EAA7B6",
"uX c #E3ABB4",
"iX c #E3AEB9",
"pX c #E3B4BB",
"aX c #E3B7BB",
"sX c #EBB3BD",
"dX c #F5B1BC",
"fX c #DAC1BD",
"gX c #DDBFC1",
"hX c #FEAFC1",
"jX c #ECB7C2",
"kX c #E4BCC2",
"lX c #ECBCC3",
"zX c #F6BAC4",
"xX c #DDC4C4",
"cX c #DAC9C7",
"vX c #DED0CF",
"bX c #E3C3C5",
"nX c #E9C4C9",
"mX c #E3CBCB",
"MX c #EBCACD",
"NX c #F3C4CB",
"BX c #F8C6CB",
"VX c #E5D0CD",
"CX c #ECCED2",
"ZX c #F7CCD3",
"AX c #ECD3D4",
"SX c #E6DAD6",
"DX c #F8D6D9",
"FX c #F4DBDB",
"GX c #DCE6DB",
"HX c #ECE2DE",
"JX c #F1E2DF",
"KX c #FDDEE0",
"LX c #ECE8E2",
"PX c #F5E4E2",
"IX c #E7F2E8",
/* pixels */
"&.S &.T.-.-.I.=.i.@.g.@.=.tXg.U.e.XXP.q.r.g.>.q.I.=.W.1 m.-.D.ZXk.-.~ ( O.5 j w I a b %.$.e 3XaXsX5X3XqX3XyX2X6X;., & - ; - - - ",
"U.o.#.i.>.n.m.:.:.+XQ.D...;XV y.lXk.P.X.| aX(.X jX{ OX& t 0 F.+Xw.Z * b >.R m X 1XM j 0 4.3XE.e.C 1.o.*X..<.~.$.>.z c - : z.2 2 ",
"F u ~ >.m.m.i.-.S.=XL.U.=X{ D.y.G.A.D u 9 qXPX{ nXF OX! :.-.:X@XF.@.e r G *.P.w.F K r.+Xe.ZXXX*.Z B 3XsXQ.u.aXC h x Y 1 Y Y z 2 ",
"XXu O.! [.C -.-.g.*.*.1.s. X{.f.D.,X} G 8 q.{.-XM.f.A...u.l.uXQ.7XQ.}.Q.^.;.*.&.y.uXkX3X4.8XM M e a.W.@X*X! p.e j f k 7 z 7 5 c.",
"=.S <.} :Xw.:.>.Q :.*.s.{ ;X].G f.w.q.{ 8 } =.] ~.[.J ,X#.k.H uXMX(.7XkXcXq.g.w.5XE.&X7XaXwXA y c s a P Q +.Z w a 3 z 5 2 6 > c.",
"2.#.o.! #.XX-.B.w.P.D L.=.} B o.=.} =.C u _.u.u F ;X_.#X}.m.k.=.C.+X@XsXaX%X2.-.@XD.H.0XZ.9X! w : 5 ^ 3 A 1XyXpXq 3 f s 6 2 z.> ",
"e b O.-.s.J.=.rXy.u.-.} y.,XF.J.X.F. .w.} I.0 J.m 4.B   9.{.+X@.yXI.8 .X XlX=.*.,X{.rX7Xk.bXQ g f U P W  .7.AXSX9.P l z 6 ; z 6 ",
"R e y P.L.1.-.9.*X&.g.S.].;XS.u.{ w.s.p.}.U.=.t   @XS.9 Z 0.{.~.7.+XS.{ 5X4X{ ;.*.5XF ..m.lXh h I ^ j >.[.6XwXVXqX3 l 4 6 ; 6 2 ",
"a.b b ;.:.u.u.-.P.Q ! @.8.|.w.L. .] e m.F.N >Xe #.r.|.V :Xu.{.X.3X+Xf.} Q.>X..E b r.g.f.;.;XP h E j a L.>X>XqXVXqXb.> 7 - ; ; 6 ",
"G *.q Q K.l.XX=Xg.Z O.u.<.g.m.U.g.@.u g.4.q.+X:.:.! F.OXV V.O _.0XnXI.V.7X>Xh.! * P `. .=.{ E.= ; 3 a h <X,X3XNXC k ; 5 ; 6 L >.",
"F @.m.*.-.S.=X<Xs.I.&.f.=.=.I.I.9.&.g.[.} <.7XC Z 2.*.g.A.sX X*XA.wX(.d.&Xq.sXA j =  XOX~ @.sX^ 7 c j y 8XfX4X0.w > z k v.n.> x.",
"5XN *.w.=X=XU.9.F.+X5XeX=.[.@Xt.].&.0 =.u.&.).[ ].$.u.-.Q.} S.L.V.AXSX~.G.7X`.( c _.~.(.$.%.P.h k v 5 s d ( c v k 4 U / n.c.2 Y ",
"5X} #.=.A.K s.f.Q.iX~.+Xr.w.&.t.1XN.] q...G jXaXiXQ.8.I.lXw.-.f.9XJXFXbXy.4.}.Z G 2XnXr.3XM R W U 2 4 ;.^ 1 / U k 7 U ^ k 7 z 5 ",
"|.S ! T.F.I.u.w.5XjX].+XA.X.&.T.-X' d.| NXA.-.dX. 8.@XK kXf.] k.nXLXE.Q N n 7XSXbX*.1XN % h ) ~ E 2 - b.v.3 k x.) 7 c.Y.$Xv.T 6 ",
"&.@.u.I.Q.eXA.].;XQ.S.1X+X=X&.&.s.I.w.f.1XS.I.0.$.p.G 8 ^.=.j.y.nXZXV Q a e }.qXCXmX7Xy w a ^ ^ s Y 1 ) ) U c / / 5 x.^ +.^ Y 7 ",
"g.<.=.@X5X X>XuXj.lX].+XOXy.S.F.f.[.G w.XXS.} ^.$.Z #.G 0XE.| Z.^.qX=.Q ) F.k.V +XqXh.{ $.M R E U c.z x n 1 k k Y 4 c.l / c.5 c.",
"G } &.w.[.[.1XI.@.Z.=.{.ZXyX:Xq.q.F.S.L.=.=XB MX1XZ #.$.jXMXR.A.2XAXX D -.7XXXF | BX3XiX3X&.;.e ( c.s ^ Y 5 j j 5 : 7 z z.6 z l ",
"w.D D -.S.s.>X XS } D @.[.g.=.N.=.XX' f..X:X;X..y.f.t :.[.j.;X8XFX4.f.S ].6XuXH OXlX3X[.{ L.P.L.~ I f f v 1 ^ ^ c n.f s v - 6 l ",
"} X.o.-. X>X7XlX-..XU.XX}..X[.F N S.w.{ S w.s.U.0 -.@.#.*.J.D.VXbX0 t } <.=.,XoX7X7X7XiX{.y ~ W d & j k 1 1 c / c / U c./ 5 4 z ",
",XV.D &.,X' lXjX@.f.g.I.s.[.=Xw.I.XX|.I.=X|.S.k.B y. Xk.X.*.eXH 4XU.1.Q.].=.zX].5X&XN.aX8Xr E a Y x.n 1 k 5 s c s < x c.x.4 6 k ",
"G.yXu <.T.C } I.U.XXyX1XU.J...F.F.k.*X} y.%X@ ..uXBXV sX^.#.R q.Q.y ! kX(.dXdXk.tXuX..nX(.N = j s / a 2 7 s c c x.Y Y / 3 l - > ",
";X<.u &.] 8 1.w.} A.H.&.@.@.uX;X+X5XD.S.q.nXnXP.} XX-.#.<.t b H._.a ~ qXaXq.I. . X3XxXVXAX@Xa j ^ x.z 5 / ^ v.x.c < Y s x.= ` 3 ",
"qX] S ' J.1.O.U.Q.qX5Xw.&.X.N.' -.B.I.H. XD.H.s.{ D.:X} =X .+.>.e x g ].6X@Xe.eXuXV F.uXbX8Xf a >.^ Y n.n.^ / x.5 l 5 5 k n.NXM ",
"X.y.XX&.S @.-.&.XX,X} s.9 ' s.*.w.Q.s.u.q.L.w.*.A.g.1.&X} b.w d j y Z }.+XY.X :XsX5X#XP.'.`.r j U f 7 v.) / c v 1 7 5 f D.Q #XJ ",
"3Xe.XXL.1.u.*.0 J S.S.P.B.f.I.S.&X=X*.&.' ' <X<X].q.| DX(.=._ a / ~ X >X]..Xl.@XXX. F..X`.G d : 5 & 7 ^ ^ ^ c < 5 z : f BX} aXgX",
"@X-.! O.*.0 Z -.*X Xf.&.B.} H.q.BX=.@.o.P.F.&.bXqX>X9 #.,X[.l.%.E #.5X>Xg.&.-.D.F.O.Q.#Xr.#X* 5 k 3 : ^ / c c v / Y f & [.w.{.lX",
"s.! O.d.X...*.-.XX>XT.s.] =XQ.@.} Q.Q.o.u E.q.R.8X3X| :.%X2XSX9X9.G {... XI.-.ZXOX1.%XwX(.4XM a c w / / ^ x c c ^ j c < P.r. .<X",
"N P.=.G.aXQ.@.P.[.|.X.' f.F y.O.o.{ {.o.u qXlX].} oX9X| H +XsX8 d.F { ' y.k.g.mX9XI.bXFXxXMX{.y ) E / c x U / x.c U ^ x J NX5Xu.",
"dX&.-.L.=.1.-.L.o.} =.S B.w.-.N q.} &.,.X O y.=. .}.[.u.~.OXS.X Z 8.[ N g.&XX KXDXj.O |.OXZXZX~ c I k c s c / k 1 < s c $ =X:X%.",
"{ yX=.V X.&.s.g.g.=.G P.u.S A.<X1.N G.6XtXS.s.} s.S.].4.y.xX&XlXK | oX{ { VX>XF oXnX7XmXwX@.j.0.f d P ^ g v.j s 1 x.c ^ g W .X'.",
"w.A.4.H.@XuX{.| >X[.S -.-.w.k.-.C w.|.p.[.-.C f.G =.}.5XG NX,X}.m.D.&XB {.AX| 1.q.PXPXHXSXu.#Xl.( g #.u.#.>.v.s 7 v x.x c I >.>.",
"S.q.ZX8.I.V MX7Xj.S.g.u.<.9 g.w.yX&.:.O..XU.} ..} u.$.k.%XqX`.:XC {.sX*Xm XXV q :XSXxXDX0X} i.a.;.n.KXSXZXG ^ x 1 Y 5 / a / 5 k ",
"&.=Xg.} P.&Xh.u.s.0Xw.-.A.*.1.g.U.i +.;.) ;.C s.} =.{ B AXSXwX;X@X*X Xq.{ Z.#.d.. BX&XdXr.! 5 >.j.wXSXSXMXy.w ) ^ c s n v./ z v ",
"G.~.{.:X,X,X@X[.G NXf.G V u.F A.].f.G ! ( E R V >XN -.P.w.qXFXxX2X5.{ S.} +XK.>.-.w. X=XF.P f y tXCXDXVXaX:.f ^ f Y k n +.x Y Y ",
"iXzXD.*X,Xk.P.~.=.I.f.o.=.w..Xw.w.k.`.-.@.F.W.JXxXZX..X *.~.xX9XPXJXbXh.G.aXd.i.F.+X XXXp.w d y { iX4XbX}.P a U l 6 2 z ) ^ l 5 ",
"] ] g.[.,XjX1Xk.L.-.N Z D ;Xw.-.o @.dX<X..0XSXVXAXFX+ kXQ.D.3XZXFXPXAX+ DX[ s.4.xXVX5.4.dX;.E :.sXE.Q.8X4X#XW a Y > z > x 5 4 Y ",
"t C }.5X,XiXE.:.&.<.{.o.+.q.&X{.f.H.X.q.D.6Xy.hX].Q.aX7X} q.E.^.^.G.{.5.OXG m.I.VXHXbX3X^.M * G sX7XaXtXxXAXf.b f 5 k / n k 6 7 ",
"*.=.7XoXaXeX@.q.tXu.S w.S.{ Z.8Xq.w.r.=.D t.e.;Xk.}.].I.~.G.+X3X} FXAXmX+Xs.J XXLXLXLXCXa.% r ~ $.~.+X=X:X0XkX@.g k d 7 s k / f ",
"L. X4XiXtX$Xt [.-.=.=.L.o >XoX{ o.<. .Q.iX&XX _.:Xq.].A.+X|.+X8X*.3XSXuX0X} [ N mXFXAX3Xt P R _ }.kXyXX.{.cXMX#Xa / j k < ^ s 1 ",
"N.G.8X,Xq.q.&.l.m F f.B.9 oX^.DXO . &.S.4.Z.O.B :XX.4.| ;XyXj.[ } 1XxX9X7X].~.V mXbXBXH   t ~ #.j.qXf.N =XqXZ.! h a x x < c c ^ ",
"G t.5X5X5.NX=.%.y +X=.G F aX(.9 d.S.,X} A.{.=.0.@.s.:XX...X G.+XS h.AXmXOX..R.OXLXgXJ 3Xf.p.Z >.;.,XD.[.f.tXS w e y < a 3 U v.m.",
"=.N *XQ.{.w.! ;.# J p.u.I.uX7XoXX.2.d.] =.0X7.M #.d.o..XXXj.G.Q.G kXPXkX2X.X2X8XwXmXh.4X4.lX%.a j G ].=.U.Q.@.b.K M 1 3 : 5 c.( ",
"! j.h.F D @.@.#.h p.zXM #.-.|.sXX F.A.H.h.cX).^.4.=.S.8.%XC.h.3Xw.Z   .XK.* m.a.y.&X3XZXZ.H W $ & % S #.* M r m.BX_ 1 : U : 7 l ",
"oXzXG =.w.N N ! e y Q R 2.i.] } [.yX;Xh.FXJXSXLXwX3XNX8XCX(.CX7.uX8 h * t R x . wXsXB AXgXS e w * 8 G.r E W w j zXr x > ) v.> > ",
"8.D.H F U.e i.2.) ( 2.i.! 1.y.w.-.g.N uX3.OX!.AX3Xk.m '.~.].].G.~.$.W b R h.&XfXLX0X5X!.oXL.i h ;.F ^.$.( w = ) Y.h < 1 b U l > ",
"N.Q.Q.|.D Q ! M m.~ #.g.[.[.XXB.N.y.q.+X+ A.wXDXQ.@.R * 4.f.A.^.0X~.E.D.[ MXLX0XeX3.0XV.:X| S G #.} >Xe.Z t b h E x < : f & & & ",
"h.>XoX3XF N w.W >.b.w.} G h.<.q.5.5.q...aX6.lXI.} -.Z   B tX[ sX2XFXGXFX2XFXDX[ 0Xu.BXr.,X8.0X2.0 $Xk.iX3.m.i @.g s 5 k < 4 4 - ",
"8XtXlXaXy.iXqX1X9.q.H H S rX5.&XkXqX&X .Q -.&X(.>XK  .;X  G.xX@ 2XuXt.zX~./.2XMXsXS F y.D.sX(.K p.o.].0X}.G } r U l l E s : 7 7 ",
",XH.iX+Xr.qXf.o.;X X*Xe.+X[ r.A.q.].V.&X| V ].kX*X:.U.OXe.(.bXZXlXI.kX XV.aX3XaX0 @.0 q.oX2XNX8XF u &XwX&.].`.w 4 2 k E s s 4 : ",
"|.XX5X|.L.sXX.Z F w.-.V (.+XL.*.Z .X*X&X%XaXS.} =.F 0 8 aXwX3.:Xy.g.2X5XD.+XnX{ g.q.0 1Xj.aX .wXD C lXMXsX`.#.y * $ f ^ c s : 1 ",
"A.' Q.D.&.uX{ S S.tXg.t.MX .B =.S =.j.NXu.o._.I.|.~.k.8 F nX8XaX4XP.} g.8X6X7X&.S.B 8 S.D.5X<XxXC P.&XkXmX-.i K I.dXA d s s 5 < ",
"aX>XF S.y.KXZ.-.Z ( `.cXJXq.} [.{ f.q.D.].>X_.,X3XQ.J.7.w.lXF 3.q.*.T.C.XXMXbXC.{.B { U.H 3.aX4.9 O 0X0 V.o y = 3 NX$.x j j d j ",
"g.|.i.{ F.DXm.C #.r 9.ZXJXR.=.s.} f.G F 1XA.I.A.=.(.C.S.L.V.} OXq.w.m yX&.A.PX%X .0XwXh.4X+X7XE.r.5X2Xq.kXV e 5 k #Xl.0 0.I x x ",
"j.w.lX=.bXJXd.8.H C m.S.E.NX@X9 H.g.f.S XXg.A.&.9XPXMXSXD.wX3.AX~.2X[ j.5.o.ZXsXF ~.FX2X:X:XaX{.r.sX~.-.;XJ.p 1 & 9.8XuX'.& v : ",
"uXq.DX=.f.PXD.k.DXD.F j.D.<XX X.F.rX,X4.+XV H.=.FXwX3.IX&X2X| 6.=.8XH } H y.-.gX2X0 h.X Q m.} @X5X+X2XF &X8 g 3 K n.i.e : & f = ",
"XX[.<.u.<.ZXAX(.[ ].*X;Xj.w.5.q.-.O.g.K.T.7.4XvXA.(.SXFX(.7XlX^.t.f.m.2.8.' A.mXvX%X&X`.Z 0 A.D.7.2XxXV *Xm.h 5 3 '.D b x s < I ",
"w.F w.U.S s.*XuX].4.S.P.I.3XaXA.t >.( #.6.].oXIXPX!.CXV.}.B 5X[ 2X| Z A @Xp._.tXrX#XI.t ;.% -.w.1XBX5X:.R e h g w -.! h U I & y ",
"I.=Xw.} s.Y.L.q.r.zXA.&.q.{.&XQ.G b.>.#.AX2Xq.PXPXDXR.NX{.}.w.B aX5X<XZ rX;.$ w = v.w g a w % y * % * & e q 0 0 S #.;.a p j 3 P ",
"N.-.}  .w.{ A.;X{.-...(.4.O.H.I.8 i.% R CXxXN 4XbXwX;XO mX3XF } Z G u R w < s a = ( : s j = a w a j h e _ .XB H.F M * a , < : c ",
"J.-.S w.S.D.eX .r.V.{.XXq.A.S N } f.G -.VXoX X>.3Xh.;XmXL.@.&.A.#.! u t M _ ~ ) ) ^ : 3 d w w h b R R g w q t :.i.h j h w M d g ",
"d.2.&.=.w.].g.H 3X} -.! V +XN l.I.;X X;XB.5.f.w.lXV q.(.S J @.r.A.w.R.0 i i W +.~ ~ a s I c s s a h ( u.m.% b h a * R g s a w e ",
"Q Q ] q.e.X.i nX7Xj. .H.O nXs.8 } [.y.lX} H {.s.NX^.j.Z.. w k 8.2X3.SX7.| +Xy.% g j a g I c a s s a * P.$Xm.%.e 1 , s h B e.^.3.",
"0 J.] tXaXF B s.zXjX} -.s.q.A =.J =XF e.=X(.E.9 Q.C.aXF.0.* * _ e.].MXlXnXr.dXp.C e h g d a j c ^ j h j g ( >.w * w * W.ZXnXmXCX",
"A.G u.y.{.g.&X-.].y.-.m.1.L.=.J ;XG g.V Y.7XQ.&Xs...7XQ.;.W j.W.G.K.F =.2XN.B ,XF r a j a 3 a j s j j j g a g w A 4.@.aXCXnXbXiX"
};
