/* XPM */
static char *result[] = {
/* columns rows colors chars-per-pixel */
"64 64 256 2 ",
"   c #1A1A1A",
".  c #1A1E23",
"X  c #1E2227",
"o  c #262729",
"O  c #2D3035",
"+  c #353639",
"@  c #782838",
"#  c #76333C",
"$  c #29304C",
"%  c #7F3548",
"&  c #7B3A48",
"*  c #3B4256",
"=  c #39456A",
"-  c #4A4D52",
";  c #78444D",
":  c #735054",
">  c #4E576F",
",  c #7F5B63",
"<  c #5C626F",
"1  c #6D6F76",
"2  c #8A2B35",
"3  c #8A2B3A",
"4  c #9A2B36",
"5  c #942D3B",
"6  c #9A333C",
"7  c #A9272C",
"8  c #B2292E",
"9  c #A32A35",
"0  c #AB2A35",
"q  c #A42C3B",
"w  c #AB2D3B",
"e  c #B22B36",
"r  c #A4333D",
"t  c #A93338",
"y  c #AB323C",
"u  c #B53237",
"i  c #B3323C",
"p  c #863948",
"a  c #8B3B4C",
"s  c #913045",
"d  c #9C3443",
"f  c #933B4B",
"g  c #983948",
"h  c #963C52",
"j  c #A33443",
"k  c #A53747",
"l  c #AC3444",
"z  c #AC3A45",
"x  c #A53B4C",
"c  c #AC3C4C",
"v  c #B23443",
"b  c #B33A44",
"n  c #B2364A",
"m  c #B33C4C",
"M  c #B83948",
"N  c #A73D52",
"B  c #8B424E",
"V  c #97424C",
"C  c #8C4353",
"Z  c #884754",
"A  c #8C4C59",
"S  c #954354",
"D  c #9B4455",
"F  c #994C56",
"G  c #944559",
"H  c #9C455B",
"J  c #944B5B",
"K  c #9B4B5D",
"L  c #89545C",
"P  c #96535C",
"I  c #A9414C",
"U  c #B4434D",
"Y  c #BB424D",
"T  c #A34354",
"R  c #AB4857",
"E  c #A3455B",
"W  c #A24B5D",
"Q  c #B54353",
"!  c #BC4554",
"~  c #B64A5A",
"^  c #A8545D",
"/  c #B6565D",
"(  c #954E62",
")  c #9C4D61",
"_  c #8D5A62",
"`  c #955462",
"'  c #9C5363",
"]  c #955A65",
"[  c #9C5966",
"{  c #995968",
"}  c #9D5C6A",
"|  c #A34C62",
" . c #AA4D64",
".. c #B74D61",
"X. c #A35464",
"o. c #AB5264",
"O. c #A75A64",
"+. c #A4566A",
"@. c #AB5569",
"#. c #A45B6B",
"$. c #AB5B6C",
"%. c #B85768",
"&. c #B35C6C",
"*. c #A05C73",
"=. c #AC5D71",
"-. c #B35D72",
";. c #BA5C73",
":. c #94646B",
">. c #9C636C",
",. c #936B71",
"<. c #9B6973",
"1. c #A6626D",
"2. c #B7636C",
"3. c #A56472",
"4. c #AC6473",
"5. c #A36B75",
"6. c #AB6A76",
"7. c #A86979",
"8. c #AD6C7A",
"9. c #B36374",
"0. c #BA6474",
"q. c #B26A75",
"w. c #B36679",
"e. c #BC6678",
"r. c #B46C7C",
"t. c #BB6B7D",
"y. c #A5757B",
"u. c #AC737D",
"i. c #B2727E",
"p. c #BA747E",
"a. c #C94E57",
"s. c #C44B58",
"d. c #C35564",
"f. c #C5576E",
"g. c #C56777",
"h. c #CD6D78",
"j. c #4E5B83",
"k. c #515E84",
"l. c #5A688F",
"z. c #6B748B",
"x. c #69769A",
"c. c #6E7CA2",
"v. c #9D7C80",
"b. c #BB6E81",
"n. c #AD7581",
"m. c #AB7B82",
"M. c #B47482",
"N. c #BB7484",
"B. c #B57B85",
"V. c #BB7A85",
"C. c #B57C88",
"Z. c #BD7C8A",
"A. c #C36D82",
"S. c #C27385",
"D. c #C77788",
"F. c #C37C8B",
"G. c #D57C8B",
"H. c #CA7E92",
"J. c #EE7F90",
"K. c #7887AA",
"L. c #7E8BB4",
"P. c #8A8C94",
"I. c #AA8A8E",
"U. c #B6848A",
"Y. c #BC828D",
"T. c #BB8992",
"R. c #BC8B93",
"E. c #BB9599",
"W. c #8892A7",
"Q. c #8896B8",
"!. c #919EBC",
"~. c #BE9EA1",
"^. c #9DA4B5",
"/. c #A9AAB5",
"(. c #C5818D",
"). c #D6858C",
"_. c #C38491",
"`. c #CB8493",
"'. c #C48A95",
"]. c #C98B97",
"[. c #CC8C99",
"{. c #D68796",
"}. c #D38C9C",
"|. c #C4939B",
" X c #C79599",
".X c #CA939C",
"XX c #D3929D",
"oX c #D6959D",
"OX c #E18B99",
"+X c #DA8EA2",
"@X c #C899A2",
"#X c #CB9BA3",
"$X c #D595A2",
"%X c #DB93A3",
"&X c #D39AA4",
"*X c #DA9AA5",
"=X c #D69CAA",
"-X c #DC9DAA",
";X c #E697A8",
":X c #E39CAA",
">X c #CAA5A9",
",X c #D3A4AB",
"<X c #D5A6AB",
"1X c #DBA3AD",
"2X c #D8AAB2",
"3X c #DCABB3",
"4X c #CCB3B3",
"5X c #D5B6B7",
"6X c #DDB4BA",
"7X c #DBBBBD",
"8X c #E5A3AE",
"9X c #E3ABB4",
"0X c #E6A9B6",
"qX c #E4B3BB",
"wX c #EBB3BD",
"eX c #E4B8BB",
"rX c #F5B2BD",
"tX c #D2C3BD",
"yX c #909EC1",
"uX c #95A4C3",
"iX c #9CA9C7",
"pX c #A3AEC9",
"aX c #A9B4CB",
"sX c #B4BBC8",
"dX c #AAB8D4",
"fX c #B3BED5",
"gX c #DDBFC1",
"hX c #FEAFC1",
"jX c #ECB7C2",
"kX c #E4BCC1",
"lX c #ECBCC4",
"zX c #F6B9C4",
"xX c #B9C5DA",
"cX c #BCC7E0",
"vX c #DCC6C6",
"bX c #D4CCD1",
"nX c #E3C3C5",
"mX c #E8C8CB",
"MX c #F6C5CB",
"NX c #E2D0CE",
"BX c #ECCED2",
"VX c #F7CCD3",
"CX c #ECD3D3",
"ZX c #E6DAD7",
"AX c #F6D8DA",
"SX c #DCE6DB",
"DX c #ECE2DE",
"FX c #F1E2DF",
"GX c #C7D0E5",
"HX c #CFD9E7",
"JX c #CCD5E8",
"KX c #FDDEE0",
"LX c #DBE1F1",
"PX c #ECE8E2",
"IX c #F5E4E2",
"UX c #E9EFF0",
/* pixels */
"+.h *.H.$.$.D.+.9.X.t.X.#.8Xb.D.5.}.S.3.7.t.-.*.H.+.U.w g.$.B.VXi.&.R ..o.y c g I r c &.X.s <XqXqX1X,XqX,X0X@X2Xo.0 4 8 8 7 7 7 ",
"H.|  .;.;.h.g.&.&.@XZ.V.{ &XG 8.jXM.D.#.] 6XE.& kX(  X4 g a V. X4.V 5 I &.T C p :XV c a :.&XU.5.S =.) $X>.=.T.O.f.M b 7 9 s.e 8 ",
"J h  .%.f.h.0.&.N.%XN.H.%X' B.7.C.n.H h & 6XIX( nXJ  X^ 2.O.oXoXS.^ 6 g W @.D.7.P P 1.oX5.VX{.O.D J &XeXT.2.wXS x M Y e Y s.i e ",
"}.h  .| `.S $.$.e.@.@.-.w.[._.r.B.-X' J a 3.'.+Xv.t.M.{ 2.p.9XU.2XU.'.Y.R.@.@.+.u.8XkX<X>.3XV I d 0.U.XXoXE q.d c z v l i i i a.",
"+.h -.) -X9.&.%.E &.@.w.` &X_.) r.4.3.` p ' *.) R.`.P =XO.i.L 3XBXE.2XkXNX4.b.=.<XU. X<X6X5XF V GXGXGXGXGXGXGXd j r b y u u 9 a.",
";.@.| E o.}.$.S.=.D.H S.#.' Z | @.' #.S a _.-.h J &X(.oX].g.p.1.m.|.XXwX6X@X;.@.oXB.F.5XGXGXGXJX. . $ $ o   . GXGXy z z u e s.0 ",
"h N  .@.e.t.#.8Xr.=.=.( 8.-XN.b.[ B.[ 4.X.F.a A.B >.Z @ 1.'. X^ wXF.p {.[.lX#.@.8X'.GXHXGX  * z.LXxX!.!.aXpXsXZXGXGXb M e u u u ",
"N s h G.S.-.$.1.$X@.r.D._.&XN.w.` 3.e.q.`.H.#.f @ XXV.p T 2. XY.<..XN.` 1X,X' @.^ GXGX  1 K.dXiX^.Q.!.l.> l.x.z.7XGXb u u 8 u 8 ",
"e.N N %.&.9.9.@.S.E H +.#.].3.S.{ ) d S.V.a =Xg X.6.[.A &X9.'.*.2X|.8.' Y.=X] R GXGXz./.LXcXuXyXL.c.c.j.$ $ W.W.- JX7 i 8 8 8 u ",
"K &.s E D.t.}.oXt.H  .0.=.b.g.D.t.X.h M.>.3..X4.&.W V. XA u.; Z.5XmXF.m.3X*Xy.GX+ UXaXaXpXuXQ.K.c.k.$ $ $ . l.HX< JX8 t 8 i z d.",
"J X.t.@.&.N.%X;X9.F.+.r.#.+.F.F.=.+.t.`.' 3.2XS D ;.@.t.M.rX[.$XM.gXE.t.&X3.GX+ LXfXcXpXyXL.K.l.j.l.$ $ X $ Q.fX< GXM i d.h.t s.",
"-XC @.=.%X;XD.4.Z..X=X1X1.H.$X7.F.+.a #.-.+.~._ _.O.0.$.Y.' V.D.n.CXCXT.V.GX- LXxXdXuXQ.L.K.k.j.= $ = = l.x.Q.aX+ GXY s.h.a.e Y ",
"1X) @.#.V.J 9.r.Y.qXT.$X7.4.#.7.:Xb.) *.} P wX6X9X(.3.(.mX9.=.r.4XAXFXnXn.GX!.fXpXiXL.uXx.l.x.k.j.j.l.j.L.L.xX/.GXGXU Q i i M i ",
"|.G | H.V.F.9.9.1XjXY.[.u.} +.H.-X) e.` MXi.$.rX# 1.XXP eXr.) r.mXPXT.N GXGXW.fXQ.!.Q.yXl.j.= > = j.k.uXdXfXxX. GXi a.G.J.a.s.u ",
"+.X.-.F.Y.8XM.'.&XY.D.-X[.+X+.' 7.F.#.r.-XN.F.2.O.q.P p R.#.u.7.mXBXG E GXP.LXGXK.L.k.yXk.Q.x.c.= L.c.K.^.LX  GXGXt a.Q ..~ Y i ",
"b.=.+.$X1X[.&X0Xn.lX_..X@X8.N.Z.r.`.( 4.}.V.[ R.O.D o.J 5XI.] m.R.gX+.GXGXP.fXQ.K.Q.c.K.k.K.l.L.L.Q.uXdXxXxXGXGXY u a.Y ! a.t a.",
"J ' +.7.H.H.:XH.X.n.} '.VX0X-X4.3.V.N.D.#.$XZ MX8XD o.O.eXmXI.t.~.CX& GXo /.xXdXK.L.x.K.j.K.dXuXyXL.dXaXP.JXGXc l 9 i Y a.u i U ",
"4.H H @.N.b.&X[.G ' H +.`.A.#.b.+.}.) w.}.-X&X] q.q.V %.`.u.*X5XIX:.GXX ^.pXpXxXL.L.yXyXyXQ.cXiXQ.xXxXW.. GXQ Q b h.y l b 7 i i ",
"' { | =.[.=X2XlX#.}.H.+X`.{.H.G a b.7.( ( 7.w.D.a #.X.X.@.g.U.NXnXB GXsXaXK.dXcXxXpXyXL.l.yXpXK.dXxX^.GXGXGXM s.M ! U d.! t u Y ",
"-XM.H @.1X( jXjX| w.M.F.w.`.+X4.Z.}.}.Z.+X[.N.n.Z 6.[.i.+.@.3XL GXGXGXdXuXiXx.dXxXL.yXiXQ.iX!.iXHXbXGXGXv w l m i y b a.d.t i i ",
"b.0Xa b.H.h ( F.H.{.0X:XH.b.{ N.C.M.+X( n.@X, *.0XMXA rXR.o.F GXGXo HX^.K.Q.!.xXxXHXcXcXpXaXxX^.1 JXGXu i l m m s.M Y s.r i 7 t ",
"=X*.h +.) p -.=.( n.F.+.| +.3X&X.X1XC.b.*.lXlXN.P .X1.X.1.f I GX- xX!.GX!.iXxXGX< 1 1 < < 1 1 o GXGXm y s.m d.! b q Y z s.6 / r ",
"kXG G ( S.-.+.D.Z.gX=X*.+.{ b.G *.b.Z.Z.H.C.Z.b.` B.*X' %XO.GXGX^.aXpXpXbXHX< - GXGXHXJXGXGXGXGXGXQ Y h.h.Q ! s.r b y r z h.MXV ",
"( b.}.+.H | =.+.+X-X' b.a ( b.%.=.F.b.w.3.Z.=.+.M.e.&.#X' GXGX* !.iXQ.^.GXGXGXGXGX1X XY.).(.g c U z i d.! ! m M w i y z B.D XXP ",
"=Xn.H.Z.-.-.+.a ( N.N.D.N.b.Z.N.=X=X@.@.) K ;X;X_.1.` AXE.GXo GXuXxXz.GXGX{.N.}.XX3 U.{.).F I 4 y r v Q Q ! m q w M 9 z MX[ eXgX",
"}.*.|  .@.a H =.@X[.b.+.N.( Z.*.zX<.) ) D.N.+.nXqX,Xa $.GXGX> W.L.sXGXGXb.X.$.V.V.o.Y.oX1.XX5 y l r q Q ! m m ! s.m b 4 `.9.'.lX",
"b.E | b.#.{ @.=.+X=XZ.b.( +XZ. .{ Z.Z. .h C.4.P.3X,X] &.GXGXpX!.xX- GX] `.F.&.VX X2.~.7XE.<XV k m 6 ! ! ! c m m ! c U q (.1.>.;X",
"a A.*.N.kXY.| D.H.H.( ( b.G n. .| ( ].| h qXlXH.K |.4XGXGXW.Q.xX1 GXGXL n.M.e.NX4X(.nXAXgXmX Xg ~ Q ! m M m ! ! m m Q n P MX1X2.",
"hX+.=.N.+.;.=.b.+.' @.H b.=.@.C *.+.+.*.& ; 7.+.[ ].GXGXW.^.iXaX- GX_ B b.@X& KXKXu.; ].E.VXMX^ m U b m l m ! v w 0 l U 2 oX*XO.",
"( 0X} G { *.;.b.b.*.) A.-.( M.+X-.Z C.1X0XD.b.GXGXGXJXz.uXK.bXz.GXGX|.` ( NX=X(  XMX5XnXtXO.p.2.z k x Q l d.m l w s.U Q t R OX).",
"*.N.<.Z.}.3X].` =XH.( =.=.=.M.GXGXGXGXGXGXGXGXGXGX- 1 dXiXiX1 GXGXB.@XZ `.BX] -.1.IXFXDXDX2.oXV.~ l o.4.o.%.s.l i M s.c U U / d.",
"N.*.VX=.F.A mX2Xn.b.b.-.=.GXGXP.< < > > > < > < sXfXiXdXP.GXGXGXB _.jX}.Z }.A p *XZXvXKX5XP 2.0./ D.AXZXVXK m M w s.r ! 6 ! t b ",
"+.%Xr.| D.#Xy.w.9.5X$.GXGXW.W.dXfXL.iXuXcXaX!.iXuXxXfX< GXGXGX$XXXXX[.3.` U.X.0.# VXoXrX5.W y 2.i.7XZXZXNXq.6 ! U U l m d...M M ",
"m.Y.'.-X-X-X}.`.` zXGX- fXfXUXGXGXGXGXGXGXGXGXGXGXGXGXGXGXqXZXvX>X<.J V.'  Xh.;.O.q.XXoXV.I y g 9XBXAXNX9X2.I U z Y v Q s.n ! M ",
"qXlXB.$X-Xi.A.R.$.GX+ !.^.O GXGX5.r.F.$.' B.T.DXvXVX{ & +.R.vX4XPXDXmXy.Y.qXt.0.V. X[.[.q.6 I V ` 9X3XnX).T r m b u e b ~ ! M l ",
") | t.`.:XjX8XM.GX$ aX- GXGXGX$.@ X.rX;X:.5XZXNXAXAX: jXY.C.,XVXAXIXCX: AX_ w.>.vXZX>.>.rX/ I 2.wXU.(.3X1XoXE j ! e i w n y t Y ",
"f S [.1X=X0XU.GX< iX- GXGX3.#X|.M.Y.#.3.B.8X8.hX(.Y.qX2X' 3.C.T.R.C.'.<.|.( f.Z.NXDXnX<XR.V 5 H wX3XeX9XnXCXt.c l y v ! m v i e ",
"@.*.2X|.jX8XGX- bXO GXGXM.( m.3X3.9.7.#.H 6.5.&Xi.]._._.T.Z.|.,X' AXBXmX@X9.( }.DXDXPXCX2.2 f ^ [ Y..X*X*X5XnXP l v j i n M s.l ",
"N.[.2X9X3X+XGX- O GXGXp.& &XE.` ) =.{ Y.qX>Xp (.*X3._.n. X[.$X3X@.,XSX8X5X' _ G NXAXBX,XV V R o. XeX0X>.E.vXmXoXj ! c v q ! w q ",
"b.C.3X-X7.GX- sXo GXt.t.a |.'.AX; # +.N.>.m.W A *X} <.` =X0Xu._ ' 8XvX4X2XZ.T.Z mXnXMXL @ g ~ o.q.7Xr.V oXqXB.W N d n m 6 m m Y ",
") 7.2X1X3.GX< + GXGX[ K J qXE.a e.b.%X' M.'.#.2.^ 4.-X} ] & Z.|.G n.BXmX X{ U.|.IXgXL <Xq.q.F %.@.*XV.`.q.9XG j f g q j q U %.g.",
"#.C $XZ._.GXx.GXGXF 6.2.F.9X3X].{ -.e.) *.6X<.a ^ 0.| {..XM.C.T.) kXKXkX>X{.>X3X7XvXy.2X>.zXO.r c W F.#.D.F.O.%.K V w r q y a.~ ",
") n.n.G GXW.GXGXT q.zXf @.$.|.jX& Z.b.Z.y.vX~.E.>.1.p.>.$Xm.v.>X4.h @ {.S.4 g.q.q.#X<XVXm.L R 4 4 2 C o.s V f g.MX^ y 9 U t i b ",
"'.zXK GXW.GXGXW s N R T ;.e.) ' _.0X#Xy.IXFXZXIX5X,XMX2XBXE.VX<.9Xp x s g I z # 7XwXZ DXgXS d r 2 p Z.g R R d c MX6 M 0 ~ d.0 e ",
"1.B.L GXGXGX0.f...R ;.0.| ;.7.w.=.t.C 0X,.|.I.CX,Xi.f ).T.F.'.C.'.P T T T y.>XtXPX5X1XE.E.S.V h ..P '.O.~ g 6 ~ G.x q w c U i 0 ",
"r._.Y.].F T W V h.R O.t.`.H.}.b.b.8.3.@X: M.gXCXY.X.T 6 *.M.M.R.6XR.U.U._ NXPX5X8X:.5Xu.*X:.S W X.P =X5.D g N x c c q 9 z 4 4 9 ",
"y.&X|.>XJ B q.R %.f.8.' ) y.+.<.<.>.*.{ kX,.lXF.' $.D @ Z 8X_ kX>XAXSXAX>XDXKX, tX2.MX6.*X3.5X;.a OXt.qX:.0.h ^ n l y v r t u 7 ",
"3X8XMXqX6.6X9X1X$.3.L J G 8X*.@XkXgX#X' | @.@X@X-XP [ &X@ C.vX: >X3Xy.hXT.I.>XNX9XF F q.B.eXE.K 9.| _.5X}.P K f U b b I l t u t ",
"-XZ.9X@X7.6Xw.| *X[.$X7.|.] 6.n.3.'.n.$X_ A Y.kX$X-.D..X<.E.nXVXjXZ.kX[.m.qX2XeXp ^ p 4. X>XMX3XG a #X7XX.'.(.d t 0 v I l l t t ",
"].}.-X[.S.jX' H J 4.$.J E..XS.@.h {.$X#X@XqXV.' #.G a p kX7X:.=Xu.r.4X1XB..XmX` p.6.a *Xy.qX[ 7XH S lXBXwX_.X.x 4 2 z Q c l 9 w ",
"M.) Y.C.+.3X` S M.8Xt.6.VX{ B #.G #.y.MXw.| H.H.].T.q.3 J mX3XkX2XD.) b.9X1X2X' N.A p p.B.1X:XnXS D.#XjXNX$.N | D.rXF x k l y r ",
"qX=XJ N.8.KXm.$.D ~ (.NXZX3.( H.( r.<.B.Y.=XY.-X,XY.t.y.#.jX( :.3.@.H.m.}.BXvXm.'.Z P F.Z :.eX>.p Z 5Xa n.% g 6 6 MX^ m c I k c ",
"b.].9.` C.AXg.h | f 4.VXIXI.{ 8.` r.J J :XN.F.M.+.E.y.B.A.n.' @X4.4.a 0X#.i.IX@X{ 5X7Xu.3X X3XC.6.1X,X<.jXA s l u oXp.a 2.U b m ",
"8.4.jX*.nXIXe.1.L C g.V.U.VX$X% D.b.b.G {.r.M.' 4XPXBXZXB.7X:.CXT.>X_ n.<.) VXwXJ Y.AX>X*X*XqX'.u.wXR.$.&XS.j e 4 1.3X9X).4 m 9 ",
"0X5.VX#.8.IXB.r.VXU.J u.B.;X% } N.8X-X} .XZ F.1.AXgX{ UX#X>X:.,.#.6X_ ' L 7.$.7X>Xp y.# T g.' }.1X X>XJ @Xp k q ^ h.e.d 9 4 l r ",
"}.`.=.w.=.VXCXE.L `.$X#Xu.4.<.5.#...N.D.H.<.,XbXM.~.ZXAXE.,XlXR.7.q.g.;.1.( M.mXbX>X&X(.D a M.B.5.>XvXZ }.h.k l r ).H N v l y c ",
"=.J 4.F.G r.&X9X].1.N.S.F.,X6XM.f %.~ @.,._.'.UXIXI.BXn.].Z 1X_ >X{ D F oXq.(.8X:X;XS.f ..3 $.4.:XMX1Xo.H s N x g $.W k U c 4 g ",
"F.-X=.' w.G.N.3.6.zXM.+.3.'.@XY.H ;.%...ZX#X4.FXKXAXI.mX'.'.6.Z qX-X;XS 8X%.2 j 6 d.d k k d 5 g s 5 5 5 s s a a F ^ %.j l z r T ",
"b.$.` +.4.] n.&XR.2.] E.>. .Z.Z.p 0.3 E VXgXa ,XvXkX&X; mX,XA ' G H h T d q v l q ~ 4 n z 6 k d j c x d ^ {.Z Z.G V 4 j 9 9 9 m ",
"A.=.S =.V.B.8X{ 6.u.'.[.#.N.G C X.r.P $.BX|.|.-.,X<.#XmXS.X.X.i.X.E h f V ^ ^ ~ ~ Q 9 q x d d x T T N k d d g -.e.k z x 6 V k k ",
"0.;.+.#.4.Y.A.A ,X^ $.W A  XC p.F.&X].#Xb.<.r.4.jXL 3.E.D P ^ 6.i.4.I.B g D R ..^ R k k I m n l l j ~ 9.h.s N x j 5 T k l 6 d d ",
"E H ) 3.y.' h lX2Xu.{ Z.; mX9.p ` `.8.lX' L '.9.MXR.u.m.# 6 v 1.>X:.CX<.{ .Xq.p k z d c I c k k l j 5 D.{.g.$.g q 0 l V Z 5.R.,.",
"a A.| 8XqXJ Z w.jXjX' $.q.1.F +.P %XJ 5.}.|.U.a B.I.qXV.2.2 6 ^ y.(.MXeXmX4.rX6.S g x l j r z m ! c k c k ~ %.d 5 d 5 B.VXmXNXBX",
"M.H w.8.'.w.@X$._.8.$.g.;.S.#.P $X` t.J H.2XR. X9.} 2XY.%.R y.U.U.S.G #.>Xp.Z 1XP f d c j r j x l c z c k j k d F 1.^ gXBXmXnX9X"
};