/* XPM */
static char *_79767ced0564fdf8f00c6adbe7fa60cMoOwjSI5IilMK6TK[] = {
/* columns rows colors chars-per-pixel */
"64 64 227 2 ",
"   c #9A447B",
".  c #8F5087",
"X  c #9B5690",
"o  c #9E5B93",
"O  c #A1558C",
"+  c #A15A8F",
"@  c #B65F88",
"#  c #A75B95",
"$  c #A45C94",
"%  c #AC5D95",
"&  c #B35E97",
"*  c #A3628F",
"=  c #BF648C",
"-  c #A36295",
";  c #A96796",
":  c #A6629A",
">  c #AD649C",
",  c #A66A9B",
"<  c #AB6A9D",
"1  c #B26599",
"2  c #B36A9D",
"3  c #BA6C9E",
"4  c #B9769B",
"5  c #AB66A1",
"6  c #AD6BA2",
"7  c #B46CA4",
"8  c #BB6CA6",
"9  c #B26FA8",
"0  c #AD70A9",
"q  c #B474A5",
"w  c #B876A3",
"e  c #BF7FA4",
"r  c #B473AA",
"t  c #BA73AB",
"y  c #B67CAA",
"u  c #BB7BAD",
"i  c #BC7BB4",
"p  c #C1628D",
"a  c #C76A94",
"s  c #CC6B95",
"d  c #CB6D98",
"f  c #D56C96",
"g  c #D46B99",
"h  c #C47399",
"j  c #CD749C",
"k  c #CC7A9F",
"l  c #D4739D",
"z  c #DA749E",
"x  c #D2799F",
"c  c #D97C9C",
"v  c #C779A7",
"b  c #CE7CA2",
"n  c #C67CAC",
"m  c #D576A1",
"M  c #DB76A2",
"N  c #D57CA4",
"B  c #DB7CA5",
"V  c #D77EA9",
"C  c #DD7EA9",
"Z  c #C27CB2",
"A  c #C77FB9",
"S  c #E27EA7",
"D  c #E17EAA",
"F  c #B682AA",
"G  c #BD81B4",
"H  c #BB89B8",
"J  c #CC82A5",
"K  c #C383AB",
"L  c #CC85AA",
"P  c #C78BAA",
"I  c #CE8BAC",
"U  c #D481A6",
"Y  c #D981A7",
"T  c #D585AA",
"R  c #DC83AC",
"E  c #D489AC",
"W  c #DB8AAE",
"Q  c #CD91AE",
"!  c #C383B3",
"~  c #CA83B3",
"^  c #C48BB2",
"/  c #CA89B4",
"(  c #C383B9",
")  c #CC85BB",
"_  c #C58ABA",
"`  c #CD8CBC",
"'  c #D286B0",
"]  c #DD87B0",
"[  c #D48CB2",
"{  c #DD8CB2",
"}  c #D286BD",
"|  c #D38CBB",
" . c #DC8FBA",
".. c #C593B3",
"X. c #CC99B6",
"o. c #C996B9",
"O. c #CC92BC",
"+. c #D493B4",
"@. c #DC93B5",
"#. c #D399B5",
"$. c #DB99B7",
"%. c #D593BD",
"&. c #DD94BA",
"*. c #D39CBD",
"=. c #DC9ABC",
"-. c #E383AD",
";. c #E881AD",
":. c #E088AF",
">. c #E486B1",
",. c #EA84B2",
"<. c #E38CB4",
"1. c #E98BB5",
"2. c #E58FB9",
"3. c #EA8DB9",
"4. c #F085B3",
"5. c #F28AB7",
"6. c #F08DB9",
"7. c #E391B6",
"8. c #E892B7",
"9. c #E494BB",
"0. c #EA94BC",
"q. c #E49ABD",
"w. c #EA9ABE",
"e. c #F194BE",
"r. c #F19ABF",
"t. c #CBA3BD",
"y. c #D5A2BF",
"u. c #DDA1BE",
"i. c #CA87C3",
"p. c #CE8DC4",
"a. c #D48DC2",
"s. c #D98EC0",
"d. c #CE93C3",
"f. c #CE97C5",
"g. c #D395C4",
"h. c #DC94C2",
"j. c #D49BC4",
"k. c #DC9CC3",
"l. c #D695C8",
"z. c #DB96C9",
"x. c #D69CCA",
"c. c #DB9DCB",
"v. c #DB9CD1",
"b. c #E496C1",
"n. c #ED96C0",
"m. c #E49CC2",
"M. c #EB9CC2",
"N. c #E69ECA",
"B. c #EB9EC9",
"V. c #F296C1",
"C. c #F29CC4",
"Z. c #CEACC4",
"A. c #D3A3C2",
"S. c #DDA3C2",
"D. c #D5ACC6",
"F. c #DDAAC5",
"G. c #D5A3CA",
"H. c #DDA2CB",
"J. c #D5ACCB",
"K. c #DCACCB",
"L. c #D4B0C8",
"P. c #DDB2CC",
"I. c #DEA3D1",
"U. c #DEABD3",
"Y. c #DEAED8",
"T. c #DCB4D3",
"R. c #DCB9D2",
"E. c #DCBBDB",
"W. c #E4A3C4",
"Q. c #EBA2C5",
"!. c #E4AAC6",
"~. c #EAA8C6",
"^. c #E5A5CA",
"/. c #ECA5C9",
"(. c #E5ACCA",
"). c #ECABCB",
"_. c #F2A2C6",
"`. c #F2A5CA",
"'. c #FAA6CB",
"]. c #F2ABCD",
"[. c #E5B1CE",
"{. c #EAB2CE",
"}. c #F1B0CE",
"|. c #E3A5D3",
" X c #E3ACD3",
".X c #EBADD1",
"XX c #E3A7D9",
"oX c #F3ADD1",
"OX c #E3B3D3",
"+X c #ECB4D2",
"@X c #E3BCD5",
"#X c #ECBAD5",
"$X c #E4B4DA",
"%X c #EBB3DC",
"&X c #E4BCDB",
"*X c #EBBCDA",
"=X c #F3B3D3",
"-X c #F8B3D6",
";X c #F2BAD5",
":X c #F3B7D9",
">X c #F3BDDA",
",X c #F9BADB",
"<X c #ECBCE1",
"1X c #F0B8E0",
"2X c #DFC4D6",
"3X c #E3C2D5",
"4X c #E9C6D6",
"5X c #E5C3DB",
"6X c #EBC4DD",
"7X c #E7CBDE",
"8X c #EACBDE",
"9X c #F7C0D7",
"0X c #F3C3DE",
"qX c #EAC5E2",
"wX c #EACAE1",
"eX c #EDCBE2",
"rX c #EECEE5",
"tX c #F5C6E1",
"yX c #F5CAE3",
"uX c #F9CAE4",
"iX c #FAC8E6",
"pX c #EBD0E2",
"aX c #EFD3E8",
"sX c #F2D7E6",
"dX c #F2D4E9",
"fX c #FBD3ED",
"gX c #FBE6F7",
/* pixels */
"(.[...F.*X*X(.o.^ ^ A.A.A.o.....@X&XT.@XP.T.5XaXgXsX3XZ.t.D.@X@XP.@X@X7X7X7X2X3X4X7X5XT.H 0 i.f.( : 5 t ( q g.r ( u 6 < ` h./ * ",
"+.[ | v 3 ~ ~ / w K |.1X%XG./ ; 4 *. XK.K.K.*.X.y.A.K.K.*.A.t.D.@X6XwXwXeXdXdXsXpX7X&XG., . 6 ( 9 o o 5 < < O.q q - y O.g.H.j.S.",
"K.H.h.v n | ` U.j./ g.G.$XG.d.` n ^. X*X$XOXOXF.S.k.*.g.U.T.Z.R.5XwXrXrXrXrXdXpX5X&X%X_ < , < o # . - o , _ g.u ; q I.G.G.J.J.S.",
"&X&X X_ g.x.U.%X<XH.%XU.J.J.$X X X>X&X6X6X@XP.K.A.j. X%X X$X&XqXZ.L.rX5X5XwXeX8X3XT. Xq ` v.u r $ u ` c.I.j.O.K l.j.c.f.F A.o.*.",
"E.E.%Xj.x.G.f.Y.$X X%X*X&XE.K.K.P.&X5X5X3X5X4X3X@X*X%XU.d.j.OX6X5X5XwX@XR.5XwX8X4X[. Xq a.g.o ( d.|.j.j.O.j.j.c.H.^. X Xj.A.A.^.",
"T.U.U.|._ p.G y F ! c.<XqX5XK.K.&X5X7X7XpXpXeX5X&X&X$Xx.y q o.&XqXqX&XD.J.&XqX6X*X XH.< Z a., d.g.g.H.j.*.j.O.` c.^.j.^.(.+X(.(.",
"x.c.c.) } 7 X X q 2 %.$X&X6X*X*X@X5X5X7X7X3X@X@X@X$XU._ u _ ^ G.OX$XU.o...U.<X*X XI.l.5 ) ` ! ` j.j.H.%.W.k.=.| %..Xk.=.(.).=.W.",
"} 3 Z n 8 # > ) a.2 z. X*X6X*X*X&X&X&X5X&X6X*XOXU. Xc.i i H.j.d.XXXXg.G G d.x.c.f.p.Z : ` / k.H.k.k.%.k./.m.&.%.^.^.+XW.W.=.q.m.",
"& & 1 7 > > 7 A # % ~ j.K.OX(. X XU.<X<X$XOX(.(.H.j.) ( l.g.u q p.p.i 6 9 i A ( i r 5 $ ~ +.$.k.k.m.q.&.Q.@.m.m./.k.+.W.W.W.Q./.",
"1 s.a.) | O O A } % 2 ! g.j.c.XXc.g.g.x.x.g.l.c.g.! q G d._ G 6 5 9 5 o X $ : : - o + t | m.%.=.m.m.9.&.@.m.q.=.).).=.&.J @.q.M.",
"| g.a.` s.3   % t n + 7 Z ~ ) a.) 7 7 t Z u t 9 r r 6 ( I.x.f._ - . o u g.l.| K e / %.%.h.h.N.^.W.q.q.m.=.I I =.W.W.=./.@.&.@.9.",
"&.&.%.%.| b.3 8 ~ h.| 2 3 2 1 1 > 2 2 2 > $ - q ` Z q ! j.O.! g.` q | c.l.N.h.%.m.^.h. .m.N.N.^.^.M._.).S.$.m.W.^.m.^.Q.N./.q./.",
"{ 9.m.^.%.=.&.&.&.&.[ 9.m.m.' n | N.m.m.h.h.b.h.h.| | &.%.[ %.k.=.m.k.m.m.N.N.&.@.b.&.b././.Q.k.m.M.M./.:X=X)././././.W.m.q.m.^.",
"B W @.Q.W.q.W.&.M.9.9.9.&. .{ &.&.m.&.m.m.&.N.m.&.b.b.&.m.9.@.=.+.+.q.&.&.q.&.&.M.m.n.9.b.E &.W.W.9.&.=.W.).oXM.Q.].m.m.{ @.Q.=.",
"S R Y { w.E q.M.9.9.M.M.9.9.9.9.m.Q.M.Q.m.N.m.m.m.m.M.m.m.9.{ q.m.&.{ @.9.9.M./.m.M.0.{ &.L +.k.).{ @.W.(.W.q.q.].oXm.q.[ q././.",
"S D Y W 8.w.<.8.0.2.8.9.<.2.8. .m.M.m.M.M.M.M.N.^./.N.m.&.9.W @.M.m.&. . .9.M.Q.@.9.9.{ &.!.OX*.=.9.9./.+X^.@.9.M.q.m.q.q.=.q.m.",
",.;.1.V.3.1.>.n.V.V.n.0.0.8.8.9.9.b.m.m.b.&.9.h.| h./.N.b. .{ &././.M.`.M.9.b.W.$.q.q.@.q.S.P.F.=.9.M.Q.).).&.9.w.9.q.].oXm.m.@.",
",.1.3.2.Y >.1.1.1.0.n.9.9.M.M.].B.n.n.C.n.9.9.b.b.m.N.&.&. .2.9.M.n.n.M.9.M./.W.&.9.9.m.Q.).#.W.W.m.9.M.Q.M. .M._.M./.Q.)././.Q.",
"D 1.2.] W 8.3.>.3.0.0.m.m.m.M.].M.3.0.3.3.<.9.9.2.b.Q.N.m.9.] <.9.0.8.<.&.m.W.W.=.q.9.M.Q.].]./.m.q.M.9.n.2.n._.w.9.q.@.w.q.).).",
">.1.1.2.<.<.<.1.0.9.9.9.m.M.{ 9.<.] R >.2.8.<.2.9.M.9.@.@.&.9.9.9.<.0.<.] q.m.m.9.0.<.<.<. .@.9.m.M.`.M.M.n.8.9.9.7.{ { q.&.].+X",
"1.1.>.<.W ] <.8.n.M.m.9.M.0.2.2.<.] 2.0.0.n.8.<.9.n.m.{ v L N.M.8.<.2.2.<.9.q.<.2.1.>.-.-.W ]  .m.9.M.9.@.q.{ W <.8.w.`.q.@.@.F.",
">.1.1.>.Y <.n.n.q.Q.Q.m.n.<.1.3.<.2.2.0.0.C.2.R { 9.9.m.+.K k.m.9.2.0.n.2.8.M.n.3.C C 1.3.3.n.0.n.M.M.m.q.q.q.T 7._.'.w.J W +.+X",
">.>.>.-.1.C.0. .9.9.&.9.9.n.3.1.1.] 8.8.n.0.1.<.b.M.{ @.N.W.^.W.9. .9.0.<.9.M.0.R d C 1.3.1.0.V.0.0.9./.Q.W.=.7.q.w.w.`.w.Q./.W.",
"3.3.,.C 1.0.<.8.M.q.&.9.m.8.R R 1.] 0.M.n.0.>.2.B.B.9.M./.^.*.*.=.q.q.M.M.9.&.{ ] <.3.0.1.2.8.>.1.Y ] @.Q.(.W./.Q.M.Q.oX).W.].+.",
"<.0.-.C 1.]  .M.C.M.q.9.q.9.] 1.3.<.9.9.0.0.3.n.9.9.9.m.^.S.*.F.S.k.&.m./.M.@.9.Q.0.<.<.8.0.9.1.e.3.9.q./.^.!.).q.W.=X(.!./.:X+X",
" .R B m >.2.<.0.0.M.W.W.).).].n.0.0.0.] 2.2.>.9.q.m.9.m./.m.W.>X{.S.=.&.8.<.<.0.M.M.<.b N W ] 1.e.<.W <.q./.$.9.W M.`.`.Q.].).).",
"W W 1.1.3.0.8.M.m.oX:X+X:X/.M.2.2.<.<.<.0.<.{ 9.q.=.&.&.].M.9.=.S.!.w.{ N B D R <.8.2.B m W W 2.R R >.W n.`.q.0.Y 2.0.M.Q.`.m.q.",
"<.1.3.V.e.1.2.M.m.=X:XW.M.0.<.2.9.9.M.M.M.M.9.M.n.9.m.9.9.0.<.W @.w.7.R B C -.>.<.<.Y W -.0.3.2.-.3.e.0._.M.Q.<.<.8.{ { q.Q.].Q.",
"3.-.D 3.-.-.2.8.Q.oXm.[ 9.M.M.M.m.m././.m./.M.M.M.q.m.M.9.8.0.2.<.<.0.e.e.0.0.8.{ W N U W 0.0.W :.2.0.7.7.E T W w.'.W E Q.w.=X].",
"-.S M S C x N Y 1.0.8.{ 9./.-X).m.N././.Q./.M.m.m.m.^..Xm.m.M.0.3.>.3.-.N x U 8.9.7.<.W 7.r.0.<.W <.8.8.9.7.E R _._.M.`.).~.Q.%.",
"B M ;.,.B N ] W >.>.1.{ m./.(.(.^.).Q.Q./.Q.M.M.M.q.(.(.W.W.Q.<.B Y 2.W b k E 9.`.'.9.7.8.0.2.R V.C.w.M.M._.'._._._._.q.w.Q.$.K ",
"-.l >.>.Y 7.`.m.9.<.<.<.9.=.$.^.W.W.m.M.M.n.0.n.2.9.9./.oX/./.9.{ 7.Q.Q.Q.W.m.q.9.M.M.n.n.0.0.<.8.M.M.Q.w.C.V.0.3.C.'.{ { 9.@.$.",
">.-.B C <.9.w.!.(.).m.9.8.N ] @.+.J @. .<.3.3.3.1.1.2.9.9.<.] 9.q.m.Q.Q.oX).q.q.9.M.q.q._.0.C.w.7.M.'.'.C.0.0.>.3.R <.n.w.Q.q.w.",
"<.<.B -.<.W W =.(.:Xm.9.<.N V j W Y >.-.C 1.0.>.>.3.3.W W Y Y E @.M.w.`.].]./.`.M.`.q.+.9.M._.`.M.w.w.w.0.2.0.2.V.>.R 0.`.].Q.Q.",
"W -.;.-.>.R <.7.9./.M.M.9.n.<.] 3.1.;.B ;.-.1.W ] 7.0.0.8.<.<.8.w.0.0.V.M.Q.Q.Q.Q.=X).=.=.&.@.q.Q.9.2.0.0.0.9.<.0.2.-.W M.Q.~.].",
";.;.,.S 3.2.<.<.0.0.0.<.<.2.0.<.2.R l g C -.<.9.q.9.0.8.<.0.V.M.w.7.<.2.9.M.q.(.+X>X+X(.).q.{ { 8.<.W 0._._.9.] 8.0.<.<.Q./.}.=X",
";.1.6.R W q.@.q.7.<. .] ] ] <.W ] <.-.-.R 8.w.Q.).Q.9.7.n.'._.n.{ W 2.<.7.M.q.(.#X>X{.(.Q.M.0.0.8.Y W 2.M.M.W 9._.'.M.Q.`./.=X].",
"-.>.0.w.J !.F.*XA.S.W.=.[ 9.C.8.w.`.M.8.<.w.`.].).~.Q.w._.M.9.M.w.7.0.7.9.`.=X{.!.).).w.w.V.-.3.0.R 7.7.w.q.7.q.q.Q.w.Q.Q.W.].Q.",
"0.8.7.m.+.F.yXgXpXR.D.S.=./._.M.W.Q.q.9.Q.=XW.u.!.$.W.Q.w.J E Q.M.8.0.C._.w.).Q.+.9.M.7.0.C.2.0.n.9.Q.Q.`.w.M.w.q.Q.@.W.W.].q.q.",
"N N 0.w.Q.(.#X6XwX6X6XeX>X:X=X^.(.W.w.Q.).(.=.W.W.=.$.$.=.$.@.&.8.<.0.0.M.Q.Q.q.{ <.w.w.q.Q.Q.Q.Q.).=X(.Q.m.Q././.=XW.!.(.m.M.Q.",
"9.R R B 8.9.q.=.W.(.iXiXOX#X>X!.(.>X).).(.).).(.!.(.S.S.:X0X=Xm.7.w.<.{ M.Q.q.q.0.] q./.W.+X+X{.!.+X#X{.!.@.M.].).(.W.(.).Q.`.+X",
">.e.>.R 2.Y U <.U ] q.].=.W.:XW.+XiX6XK.K.>X=X/.Q./.!.u.F.*X0X#XW.(.W.@.w.M.M.M.M.q.Q.=X+X*X@X*X[.#X0X+X(.q.Q.].m.W.W.!.(.W.).(.",
"l 1.V.V.C.w.2.2.>.W <.7./.m.Q.Q.Q.[.6XeXwXtX=X].`.Q.=X=X!.K.@XF.S.{.(.W./.].M.9.q.M.Q.W.u.#X>X=X).=X:X).W.q.M.Q.W.W.+X>X{.+X(.(.",
"N W n.W 0.w.0.0.C.<.<.7.0.w._.w.q.$.K.6XfX*XW.(.(.M.Q.Q.=.F.*X#X(.(.=.+.@.Q.m.9.w.q.m.W.W.!.=X`.C.9.{ @.q._.Q.W.(.{.#X0X*XP.K.-X",
"R <.9.<.w.9.q.q.w.8.<.7.7.3.3.<.w.q.W.*XfX;X!.!.{.M.w.r.q.!.tXiX;X!.u.$.$.=X).7.q.w.w.w.Q.w.7.>.0.8.@.w.M.M.w.).{.{.>X0X#X+X0XtX",
"7.9.9.q.w.q.q.w.W w.W :.0.3.,.,.0.7.@.!.#X!.).u.W.Q.<.W 9.(.;X=X=X;X;X>X(.).Q.q.@.@.q.w.9.<.R N W `.=X;X}.W.(.=X].].}.=X).=X{.tX",
"7.w.M.M.q.@.@.W W ] <.>.-.D m -.0.0.{ +.@.+.I +.S.].9.8.9.q.Q.Q.m.$.S.(.S.Q.Q.Q.Q.Q.M.].Q.7.M.<.7.Q.].+X!.W.=XQ.q.Q.`.M.q.w.q.(.",
"8.7.<.<.7.9.9.0.>.R 0.R C 1.B -.W 8.w.q.q.9.W { m.m.$.$.q.{ W W { (.[.(.u.!.].Q.Q.q.M.m.]./.Q.T M.].@.=.Q.).Q.w.7.q.q.q.9.Q.w.Q.",
"<.W W <.n.8.] >.-.C C l >.m s d W 0.8.9.C.C.w.W q.W.$.$.M.0.>.Y W !.+X+X{.u.).].`.Q.W.$.Q.oXq.@.{ Q.9.q.Q.`.q.M.q.Q.Q././.].Q.`.",
"{ M.J E 7.0.>.e.>.M l B N @ j m -.D -.e.0.n._.w.q.M.q.M._.0.>.N a h U &.(.S.*X=XM.W.(..X+X/./.Q.q.Q._.n.M._.Q.`.Q.q.=.S.!.q.9.Q.",
"<.Q.{ 9.0.2.C 3.8.>.R  .q.[ 9.] 0.R l B >.2.7.{ 0.q.9.w.7.7.M.] x N 2.@.q.(.[.m.E =.)..X^.=.m.W./.Q._.8.C._.M.].W.{.!.(.=.q.q.W.",
"'.8.U n.0.-.>.<.9.0.0.m.S.*X$.@.9.0.N N N U ] 0.0.0.<.9.Q.!.(.Q.8.7.n.].Q.W.W.Q.`.].).+X>X(.!.$./.M.8.C._.M.9.Q.Q.m.Q.q.).W.!.q.",
"-.>.:.R <.N R <.9.<.9.W.Q #XS.$.$.Q.9.{ 7.0.r.e.,.3.<.q.=X!.S.W.].Q.@.$.=.W.~./.h L m.).+Xk.e 4 J U h U <.7.@.$.@.@.W 8.w.Q #.$.",
"M C d B <.w.7.{ R C >.{ =.W.m.W.!.}.Q.q.q.7.<.3.;.;.-.2.=X>X[.[.{.F.F.F.{.S.S.W.+.&.$.$.W.!.$.{ M.<.Y N W W +.$.q.7.Y <.q.(.(.9.",
"a a D e.R 9.Q.M.C.V.1.] 9.@.<. ./.].).Q.q.8.:.R C ,.;.>.w.].).(.+X>XtX6X*XtXtX*X[.(.+.&.q.W.W.q.C.8.<.7.8.9.q.9.{ W W 7.q.W.(.] ",
"M B 1.B 7.m.W.&.M.V.>.R &.8.3.8.].).W.W.q.W N <.0.6.,.D C Y M.-X+X=.S.#X+Xy.[.yX@XF.^.Q.q.Q.q.] Y R W <.<.9.M.8.U U ].oX).).].@.",
"3.>.m W 7.-X+XW./.M.W { 9.C.e.0.9.m.q.$.Q.9.] W 0.0.,.5.4.,.2.8._.q.P $.W.$.W.yXL.F.+Xm. .9. .] Y R 0.2._.`.q.0.<.9.).W.$.+.9.W.",
"] 2.2.b <.M.m.q.M.0.1.>.>.-.B 2.M.@.#.*.W.W.M. .8.0.0.0.0.0.q.q.W.q.I E E W 9.7.+.X.Q J Y 2.7.b k W U q.Q.Q.!.W.Q.9.9.@.q.S.(.q.",
"2.Y <.2.8.M.M.q.q.8.C m l m -.<.0.].).).(.]._.8.<.N Y >.8.9.9.{ J @.q.T U W <.-.N [ +.{ C D >.Y 0.0.W N { { q.tXyX+X:X,X+XtX0X*X",
"] b b h ] 0.U W q.M.] 0.>.-.-.B 2.'.].].`._.2.B <.0.0.e.V.8.{ <.2.2.W Y m Y B M l b J U ;.M m C B p a = m 2.8.&.W.W.=.).=X-X=X9X",
"M.E [ E b j R _.W.w.T W N N R R B N 8.8.8.>.-.-.0.C l l <.9.W R B M ;.,.R M B f l k T 7.8.7.Y R N R 7.U Y U <.U w.Q.E @.N s z c ",
"M.m.)./.{ ] n.`.+.@.M.7.W U b 7.<.R W Y N C ;.,.,.-.l l l j U l z B z l M -.e.0.<.9.$.(.W.@.7.w.q.].$.q.q.w.].].=.#.u.#.+.U C f ",
"Q.m.:X=.-XQ.9.{ m.&.W 0.0.<.8.7.9.W 7.2.0.3.C 0.0.-.1.V.V.7.U N B B R 1.C j B 0.2.2.&.X.#X[.=.).:X>X0X#X+X,X=XM.0.Q.q.E j m M -.",
".X).iX*X#X).m.Q.Q.M.<.2.2.N 0.M.w.@.9.<.W <.N N x R 0.3.M.,X/.9.M.W U 3.0.R m C ;.D w.S.6X+XQ.).=XiXiXfX0X).U C D g g 4.g M 1.R "
};